{
    "asset" : {
        "generator" : "Khronos glTF Blender I/O v1.6.16",
        "version" : "2.0"
    },
    "scene" : 0,
    "scenes" : [
        {
            "name" : "Scene",
            "nodes" : [
                6,
                7
            ]
        }
    ],
    "nodes" : [
        {
            "mesh" : 0,
            "name" : "Ground Plane"
        },
        {
            "mesh" : 1,
            "name" : "Player1",
            "scale" : [
                0.10000000149011612,
                0.10000000149011612,
                0.10000000149011612
            ],
            "translation" : [
                -7,
                1,
                0
            ]
        },
        {
            "mesh" : 2,
            "name" : "Player2",
            "scale" : [
                0.10000000149011612,
                0.10000000149011612,
                0.10000000149011612
            ],
            "translation" : [
                7,
                1,
                0
            ]
        },
        {
            "mesh" : 3,
            "name" : "Player3",
            "scale" : [
                0.10000000149011612,
                0.10000000149011612,
                0.10000000149011612
            ],
            "translation" : [
                0,
                1,
                -7
            ]
        },
        {
            "mesh" : 4,
            "name" : "Player4",
            "scale" : [
                0.09999994188547134,
                0.10000000149011612,
                0.10000000149011612
            ],
            "translation" : [
                0,
                1,
                7
            ]
        },
        {
            "children" : [
                0,
                1,
                2,
                3,
                4
            ],
            "name" : "Scene"
        },
        {
            "children" : [
                5
            ],
            "name" : "SplitScreen"
        },
        {
            "name" : "Light",
            "rotation" : [
                0.16907575726509094,
                0.7558803558349609,
                -0.27217137813568115,
                0.570947527885437
            ],
            "translation" : [
                4.076245307922363,
                5.903861999511719,
                -1.0054539442062378
            ]
        }
    ],
    "materials" : [
        {
            "doubleSided" : true,
            "name" : "Ground material",
            "pbrMetallicRoughness" : {
                "baseColorFactor" : [
                    0.2140345275402069,
                    0.059085264801979065,
                    0.012005447410047054,
                    1
                ],
                "metallicFactor" : 0,
                "roughnessFactor" : 0.5
            }
        },
        {
            "doubleSided" : true,
            "name" : "Player1",
            "pbrMetallicRoughness" : {
                "baseColorFactor" : [
                    0,
                    0,
                    0.8000000715255737,
                    1
                ],
                "metallicFactor" : 0,
                "roughnessFactor" : 0.5
            }
        },
        {
            "doubleSided" : true,
            "name" : "Player2",
            "pbrMetallicRoughness" : {
                "baseColorFactor" : [
                    0.800000011920929,
                    0,
                    0,
                    1
                ],
                "metallicFactor" : 0,
                "roughnessFactor" : 0.5
            }
        },
        {
            "doubleSided" : true,
            "name" : "Player 3",
            "pbrMetallicRoughness" : {
                "baseColorFactor" : [
                    1.7166138377433526e-06,
                    0.800000011920929,
                    0,
                    1
                ],
                "metallicFactor" : 0,
                "roughnessFactor" : 0.5
            }
        },
        {
            "doubleSided" : true,
            "name" : "Player 4",
            "pbrMetallicRoughness" : {
                "baseColorFactor" : [
                    0.7999985218048096,
                    0,
                    0.8000000715255737,
                    1
                ],
                "metallicFactor" : 0,
                "roughnessFactor" : 0.5
            }
        }
    ],
    "meshes" : [
        {
            "name" : "Plane",
            "primitives" : [
                {
                    "attributes" : {
                        "POSITION" : 0,
                        "NORMAL" : 1,
                        "TEXCOORD_0" : 2
                    },
                    "indices" : 3,
                    "material" : 0
                }
            ]
        },
        {
            "name" : "Player1 Mesh",
            "primitives" : [
                {
                    "attributes" : {
                        "POSITION" : 4,
                        "NORMAL" : 5,
                        "TEXCOORD_0" : 6
                    },
                    "indices" : 7,
                    "material" : 1
                }
            ]
        },
        {
            "name" : "Player 2 Mesh",
            "primitives" : [
                {
                    "attributes" : {
                        "POSITION" : 8,
                        "NORMAL" : 9,
                        "TEXCOORD_0" : 10
                    },
                    "indices" : 7,
                    "material" : 2
                }
            ]
        },
        {
            "name" : "Player 3 Mesh",
            "primitives" : [
                {
                    "attributes" : {
                        "POSITION" : 11,
                        "NORMAL" : 12,
                        "TEXCOORD_0" : 13
                    },
                    "indices" : 7,
                    "material" : 3
                }
            ]
        },
        {
            "name" : "Player 4 Mesh",
            "primitives" : [
                {
                    "attributes" : {
                        "POSITION" : 14,
                        "NORMAL" : 15,
                        "TEXCOORD_0" : 16
                    },
                    "indices" : 7,
                    "material" : 4
                }
            ]
        }
    ],
    "accessors" : [
        {
            "bufferView" : 0,
            "componentType" : 5126,
            "count" : 4,
            "max" : [
                15,
                0,
                15
            ],
            "min" : [
                -15,
                0,
                -15
            ],
            "type" : "VEC3"
        },
        {
            "bufferView" : 1,
            "componentType" : 5126,
            "count" : 4,
            "type" : "VEC3"
        },
        {
            "bufferView" : 2,
            "componentType" : 5126,
            "count" : 4,
            "type" : "VEC2"
        },
        {
            "bufferView" : 3,
            "componentType" : 5123,
            "count" : 6,
            "type" : "SCALAR"
        },
        {
            "bufferView" : 4,
            "componentType" : 5126,
            "count" : 36,
            "max" : [
                8.660249710083008,
                10,
                10
            ],
            "min" : [
                -8.660249710083008,
                -10,
                -10
            ],
            "type" : "VEC3"
        },
        {
            "bufferView" : 5,
            "componentType" : 5126,
            "count" : 36,
            "type" : "VEC3"
        },
        {
            "bufferView" : 6,
            "componentType" : 5126,
            "count" : 36,
            "type" : "VEC2"
        },
        {
            "bufferView" : 7,
            "componentType" : 5123,
            "count" : 60,
            "type" : "SCALAR"
        },
        {
            "bufferView" : 8,
            "componentType" : 5126,
            "count" : 36,
            "max" : [
                8.660249710083008,
                10,
                10
            ],
            "min" : [
                -8.660249710083008,
                -10,
                -10
            ],
            "type" : "VEC3"
        },
        {
            "bufferView" : 9,
            "componentType" : 5126,
            "count" : 36,
            "type" : "VEC3"
        },
        {
            "bufferView" : 10,
            "componentType" : 5126,
            "count" : 36,
            "type" : "VEC2"
        },
        {
            "bufferView" : 11,
            "componentType" : 5126,
            "count" : 36,
            "max" : [
                8.660249710083008,
                10,
                10
            ],
            "min" : [
                -8.660249710083008,
                -10,
                -10
            ],
            "type" : "VEC3"
        },
        {
            "bufferView" : 12,
            "componentType" : 5126,
            "count" : 36,
            "type" : "VEC3"
        },
        {
            "bufferView" : 13,
            "componentType" : 5126,
            "count" : 36,
            "type" : "VEC2"
        },
        {
            "bufferView" : 14,
            "componentType" : 5126,
            "count" : 36,
            "max" : [
                8.66025447845459,
                10,
                10
            ],
            "min" : [
                -8.66025447845459,
                -10,
                -10
            ],
            "type" : "VEC3"
        },
        {
            "bufferView" : 15,
            "componentType" : 5126,
            "count" : 36,
            "type" : "VEC3"
        },
        {
            "bufferView" : 16,
            "componentType" : 5126,
            "count" : 36,
            "type" : "VEC2"
        }
    ],
    "bufferViews" : [
        {
            "buffer" : 0,
            "byteLength" : 48,
            "byteOffset" : 0
        },
        {
            "buffer" : 0,
            "byteLength" : 48,
            "byteOffset" : 48
        },
        {
            "buffer" : 0,
            "byteLength" : 32,
            "byteOffset" : 96
        },
        {
            "buffer" : 0,
            "byteLength" : 12,
            "byteOffset" : 128
        },
        {
            "buffer" : 0,
            "byteLength" : 432,
            "byteOffset" : 140
        },
        {
            "buffer" : 0,
            "byteLength" : 432,
            "byteOffset" : 572
        },
        {
            "buffer" : 0,
            "byteLength" : 288,
            "byteOffset" : 1004
        },
        {
            "buffer" : 0,
            "byteLength" : 120,
            "byteOffset" : 1292
        },
        {
            "buffer" : 0,
            "byteLength" : 432,
            "byteOffset" : 1412
        },
        {
            "buffer" : 0,
            "byteLength" : 432,
            "byteOffset" : 1844
        },
        {
            "buffer" : 0,
            "byteLength" : 288,
            "byteOffset" : 2276
        },
        {
            "buffer" : 0,
            "byteLength" : 432,
            "byteOffset" : 2564
        },
        {
            "buffer" : 0,
            "byteLength" : 432,
            "byteOffset" : 2996
        },
        {
            "buffer" : 0,
            "byteLength" : 288,
            "byteOffset" : 3428
        },
        {
            "buffer" : 0,
            "byteLength" : 432,
            "byteOffset" : 3716
        },
        {
            "buffer" : 0,
            "byteLength" : 432,
            "byteOffset" : 4148
        },
        {
            "buffer" : 0,
            "byteLength" : 288,
            "byteOffset" : 4580
        }
    ],
    "buffers" : [
        {
            "byteLength" : 4868,
            "uri" : "split_screen_sample.bin"
        }
    ]
}
