{
    "asset" : {
        "generator" : "Khronos glTF Blender I/O v1.5.17",
        "version" : "2.0"
    },
    "scene" : 0,
    "scenes" : [
        {
            "name" : "Scene",
            "nodes" : [
                0
            ]
        }
    ],
    "nodes" : [
        {
            "mesh" : 0,
            "name" : "Penguin"
        }
    ],
    "materials" : [
        {
            "doubleSided" : true,
            "name" : "mat_0-penguin_eye_0.jpg",
            "pbrMetallicRoughness" : {
                "baseColorTexture" : {
                    "index" : 0
                },
                "metallicFactor" : 0,
                "roughnessFactor" : 0.8953887820243835
            }
        },
        {
            "doubleSided" : true,
            "name" : "mat_1-penguin_cmp4.jpg",
            "pbrMetallicRoughness" : {
                "baseColorTexture" : {
                    "index" : 1
                },
                "metallicFactor" : 0,
                "roughnessFactor" : 0.8953887820243835
            }
        }
    ],
    "meshes" : [
        {
            "name" : "4PAON8SRLERVUI1GK20KWBBSZ",
            "primitives" : [
                {
                    "attributes" : {
                        "POSITION" : 0,
                        "NORMAL" : 1,
                        "TEXCOORD_0" : 2
                    },
                    "indices" : 3,
                    "material" : 0
                },
                {
                    "attributes" : {
                        "POSITION" : 4,
                        "NORMAL" : 5,
                        "TEXCOORD_0" : 6
                    },
                    "indices" : 7,
                    "material" : 1
                }
            ]
        }
    ],
    "textures" : [
        {
            "sampler" : 0,
            "source" : 0
        },
        {
            "sampler" : 0,
            "source" : 1
        }
    ],
    "images" : [
        {
            "mimeType" : "image/jpeg",
            "name" : "penguin_eye_0",
            "uri" : "penguin_eye_0.jpg"
        },
        {
            "mimeType" : "image/jpeg",
            "name" : "penguin_cmp4",
            "uri" : "penguin_cmp4.jpg"
        }
    ],
    "accessors" : [
        {
            "bufferView" : 0,
            "componentType" : 5126,
            "count" : 18,
            "max" : [
                51.3865966796875,
                112.11700439453125,
                -43.156097412109375
            ],
            "min" : [
                -51.39110565185547,
                71.57769775390625,
                -67.69159698486328
            ],
            "type" : "VEC3"
        },
        {
            "bufferView" : 1,
            "componentType" : 5126,
            "count" : 18,
            "type" : "VEC3"
        },
        {
            "bufferView" : 2,
            "componentType" : 5126,
            "count" : 18,
            "type" : "VEC2"
        },
        {
            "bufferView" : 3,
            "componentType" : 5123,
            "count" : 18,
            "type" : "SCALAR"
        },
        {
            "bufferView" : 4,
            "componentType" : 5126,
            "count" : 728,
            "max" : [
                98.57050323486328,
                125,
                107.30630493164062
            ],
            "min" : [
                -98.57050323486328,
                -125,
                -107.30630493164062
            ],
            "type" : "VEC3"
        },
        {
            "bufferView" : 5,
            "componentType" : 5126,
            "count" : 728,
            "type" : "VEC3"
        },
        {
            "bufferView" : 6,
            "componentType" : 5126,
            "count" : 728,
            "type" : "VEC2"
        },
        {
            "bufferView" : 7,
            "componentType" : 5123,
            "count" : 732,
            "type" : "SCALAR"
        }
    ],
    "bufferViews" : [
        {
            "buffer" : 0,
            "byteLength" : 216,
            "byteOffset" : 0
        },
        {
            "buffer" : 0,
            "byteLength" : 216,
            "byteOffset" : 216
        },
        {
            "buffer" : 0,
            "byteLength" : 144,
            "byteOffset" : 432
        },
        {
            "buffer" : 0,
            "byteLength" : 36,
            "byteOffset" : 576
        },
        {
            "buffer" : 0,
            "byteLength" : 8736,
            "byteOffset" : 612
        },
        {
            "buffer" : 0,
            "byteLength" : 8736,
            "byteOffset" : 9348
        },
        {
            "buffer" : 0,
            "byteLength" : 5824,
            "byteOffset" : 18084
        },
        {
            "buffer" : 0,
            "byteLength" : 1464,
            "byteOffset" : 23908
        }
    ],
    "samplers" : [
        {
            "magFilter" : 9729,
            "minFilter" : 9987
        }
    ],
    "buffers" : [
        {
            "byteLength" : 25372,
            "uri" : "penguin.bin"
        }
    ]
}
