{
    "asset" : {
        "generator" : "Khronos glTF Blender I/O v3.2.40",
        "version" : "2.0"
    },
    "scene" : 0,
    "scenes" : [
        {
            "name" : "Scene",
            "nodes" : [
                0
            ]
        }
    ],
    "nodes" : [
        {
            "mesh" : 0,
            "name" : "Mace"
        }
    ],
    "materials" : [
        {
            "doubleSided" : true,
            "name" : "Sword_Metal",
            "pbrMetallicRoughness" : {
                "baseColorFactor" : [
                    0.21403418481349945,
                    0.21403418481349945,
                    0.21403418481349945,
                    1
                ],
                "metallicFactor" : 0,
                "roughnessFactor" : 0.5
            }
        },
        {
            "doubleSided" : true,
            "name" : "Sword_Hilt",
            "pbrMetallicRoughness" : {
                "baseColorFactor" : [
                    0.2140343189239502,
                    0.08271880447864532,
                    0.007106413599103689,
                    1
                ],
                "metallicFactor" : 0,
                "roughnessFactor" : 0.5
            }
        }
    ],
    "meshes" : [
        {
            "name" : "Icosphere",
            "primitives" : [
                {
                    "attributes" : {
                        "POSITION" : 0,
                        "NORMAL" : 1,
                        "TEXCOORD_0" : 2
                    },
                    "indices" : 3,
                    "material" : 0
                },
                {
                    "attributes" : {
                        "POSITION" : 4,
                        "NORMAL" : 5,
                        "TEXCOORD_0" : 6
                    },
                    "indices" : 7,
                    "material" : 1
                }
            ]
        }
    ],
    "accessors" : [
        {
            "bufferView" : 0,
            "componentType" : 5126,
            "count" : 240,
            "max" : [
                23.776447296142578,
                113.97801971435547,
                25
            ],
            "min" : [
                -23.776447296142578,
                63.97801971435547,
                -25
            ],
            "type" : "VEC3"
        },
        {
            "bufferView" : 1,
            "componentType" : 5126,
            "count" : 240,
            "type" : "VEC3"
        },
        {
            "bufferView" : 2,
            "componentType" : 5126,
            "count" : 240,
            "type" : "VEC2"
        },
        {
            "bufferView" : 3,
            "componentType" : 5123,
            "count" : 240,
            "type" : "SCALAR"
        },
        {
            "bufferView" : 4,
            "componentType" : 5126,
            "count" : 36,
            "max" : [
                6.578516960144043,
                69.86022186279297,
                7.596216678619385
            ],
            "min" : [
                -6.578516960144043,
                -15.398368835449219,
                -7.596216678619385
            ],
            "type" : "VEC3"
        },
        {
            "bufferView" : 5,
            "componentType" : 5126,
            "count" : 36,
            "type" : "VEC3"
        },
        {
            "bufferView" : 6,
            "componentType" : 5126,
            "count" : 36,
            "type" : "VEC2"
        },
        {
            "bufferView" : 7,
            "componentType" : 5123,
            "count" : 60,
            "type" : "SCALAR"
        }
    ],
    "bufferViews" : [
        {
            "buffer" : 0,
            "byteLength" : 2880,
            "byteOffset" : 0
        },
        {
            "buffer" : 0,
            "byteLength" : 2880,
            "byteOffset" : 2880
        },
        {
            "buffer" : 0,
            "byteLength" : 1920,
            "byteOffset" : 5760
        },
        {
            "buffer" : 0,
            "byteLength" : 480,
            "byteOffset" : 7680
        },
        {
            "buffer" : 0,
            "byteLength" : 432,
            "byteOffset" : 8160
        },
        {
            "buffer" : 0,
            "byteLength" : 432,
            "byteOffset" : 8592
        },
        {
            "buffer" : 0,
            "byteLength" : 288,
            "byteOffset" : 9024
        },
        {
            "buffer" : 0,
            "byteLength" : 120,
            "byteOffset" : 9312
        }
    ],
    "buffers" : [
        {
            "byteLength" : 9432,
            "uri" : "mace.bin"
        }
    ]
}
