{
	"asset":{
		"generator":"Khronos glTF Blender I/O v4.0.44",
		"version":"2.0"
	},
	"scene":0,
	"scenes":[
		{
			"name":"Scene",
			"nodes":[
				11
			]
		}
	],
	"nodes":[
		{
			"mesh":0,
			"name":"Cube",
			"scale":[
				10,
				10,
				10
			],
			"translation":[
				78,
				9,
				49
			]
		},
		{
			"children":[
				0
			],
			"name":"Colliders"
		},
		{
			"name":"Camera",
			"translation":[
				0,
				100,
				-125
			]
		},
		{
			"extras":{
				"data":"3",
				"layers":"cubes triangles",
				"collider":"Cube"
			},
			"mesh":1,
			"name":"Collision Mesh",
			"translation":[
				5,
				1,
				5
			]
		},
		{
			"mesh":2,
			"name":"_boundingBox",
			"scale":[
				0.5,
				1.5,
				0.5
			],
			"translation":[
				0,
				1,
				0
			]
		},
		{
			"children":[
				4
			],
			"extras":{
				"data":"2",
				"layers":"cubes triangles"
			},
			"mesh":3,
			"name":"Custom Bounding Box",
			"translation":[
				-5,
				1,
				5
			]
		},
		{
			"extras":{
				"data":"0",
				"layers":"cubes triangles"
			},
			"mesh":4,
			"name":"Mesh Bounding",
			"translation":[
				-5,
				1,
				-5
			]
		},
		{
			"extras":{
				"data":"1",
				"layers":"cubes triangles",
				"collider":"none"
			},
			"mesh":5,
			"name":"No Collider",
			"translation":[
				5,
				1,
				-5
			]
		},
		{
			"children":[
				3,
				5,
				6,
				7
			],
			"name":"Cubes",
			"scale":[
				10,
				10,
				10
			]
		},
		{
			"extras":{
				"layers":"triangles"
			},
			"name":"Penguin",
			"rotation":[
				0,
				-1,
				0,
				7.549790126404332e-08
			],
			"scale":[
				0.10000000149011612,
				0.10000000149011612,
				0.10000000149011612
			]
		},
		{
			"children":[
				2,
				8,
				9
			],
			"name":"Scene"
		},
		{
			"children":[
				1,
				10
			],
			"extras":{
				"extraColliders":"2",
				"extraMeshInstances":"9",
				"extraMeshes":"2",
				"extraNodes":"7"
			},
			"name":"Bounding_Example"
		}
	],
	"materials":[
		{
			"doubleSided":true,
			"name":"Cube 3 Material",
			"pbrMetallicRoughness":{
				"baseColorFactor":[
					0.009034070186316967,
					0.09318573027849197,
					0.8000000715255737,
					1
				],
				"metallicFactor":0,
				"roughnessFactor":0.4000000059604645
			}
		},
		{
			"doubleSided":true,
			"name":"Cube 4 Material",
			"pbrMetallicRoughness":{
				"baseColorFactor":[
					0.0156396497040987,
					0.6105857491493225,
					0.01051971223205328,
					1
				],
				"metallicFactor":0,
				"roughnessFactor":0.4000000059604645
			}
		},
		{
			"doubleSided":true,
			"name":"Cube1 Material",
			"pbrMetallicRoughness":{
				"baseColorFactor":[
					0.8000000715255737,
					0.02044253796339035,
					0.040708981454372406,
					1
				],
				"metallicFactor":0,
				"roughnessFactor":0.4000000059604645
			}
		},
		{
			"doubleSided":true,
			"name":"Cube 2 Material.001",
			"pbrMetallicRoughness":{
				"baseColorTexture":{
					"index":0
				},
				"metallicFactor":0,
				"roughnessFactor":0.4000000059604645
			}
		}
	],
	"meshes":[
		{
			"name":"Cube.006",
			"primitives":[
				{
					"attributes":{
						"POSITION":0,
						"NORMAL":1,
						"TEXCOORD_0":2
					},
					"indices":3
				}
			]
		},
		{
			"name":"Cube.003",
			"primitives":[
				{
					"attributes":{
						"POSITION":4,
						"NORMAL":5,
						"TEXCOORD_0":6
					},
					"indices":7,
					"material":0
				}
			]
		},
		{
			"name":"Cube.005",
			"primitives":[
				{
					"attributes":{
						"POSITION":8,
						"NORMAL":9,
						"TEXCOORD_0":10
					},
					"indices":11
				}
			]
		},
		{
			"name":"Cube.002",
			"primitives":[
				{
					"attributes":{
						"POSITION":12,
						"NORMAL":13,
						"TEXCOORD_0":14
					},
					"indices":7,
					"material":1
				}
			]
		},
		{
			"name":"Cube",
			"primitives":[
				{
					"attributes":{
						"POSITION":15,
						"NORMAL":16,
						"TEXCOORD_0":17
					},
					"indices":7,
					"material":2
				}
			]
		},
		{
			"name":"Cube.001",
			"primitives":[
				{
					"attributes":{
						"POSITION":18,
						"NORMAL":19,
						"TEXCOORD_0":20
					},
					"indices":7,
					"material":3
				}
			]
		}
	],
	"textures":[
		{
			"sampler":0,
			"source":0
		}
	],
	"images":[
		{
			"mimeType":"image/png",
			"name":"no",
			"uri":"no.png"
		}
	],
	"accessors":[
		{
			"bufferView":0,
			"componentType":5126,
			"count":24,
			"max":[
				1,
				1,
				1
			],
			"min":[
				-1,
				-1,
				-1
			],
			"type":"VEC3"
		},
		{
			"bufferView":1,
			"componentType":5126,
			"count":24,
			"type":"VEC3"
		},
		{
			"bufferView":2,
			"componentType":5126,
			"count":24,
			"type":"VEC2"
		},
		{
			"bufferView":3,
			"componentType":5123,
			"count":36,
			"type":"SCALAR"
		},
		{
			"bufferView":4,
			"componentType":5126,
			"count":24,
			"max":[
				1,
				1,
				1
			],
			"min":[
				-1,
				-1,
				-1
			],
			"type":"VEC3"
		},
		{
			"bufferView":5,
			"componentType":5126,
			"count":24,
			"type":"VEC3"
		},
		{
			"bufferView":6,
			"componentType":5126,
			"count":24,
			"type":"VEC2"
		},
		{
			"bufferView":7,
			"componentType":5123,
			"count":36,
			"type":"SCALAR"
		},
		{
			"bufferView":8,
			"componentType":5126,
			"count":192,
			"max":[
				1.002915620803833,
				1.002915620803833,
				1.002915620803833
			],
			"min":[
				-1.002915620803833,
				-1.002915620803833,
				-1.002915620803833
			],
			"type":"VEC3"
		},
		{
			"bufferView":9,
			"componentType":5126,
			"count":192,
			"type":"VEC3"
		},
		{
			"bufferView":10,
			"componentType":5126,
			"count":192,
			"type":"VEC2"
		},
		{
			"bufferView":11,
			"componentType":5123,
			"count":288,
			"type":"SCALAR"
		},
		{
			"bufferView":12,
			"componentType":5126,
			"count":24,
			"max":[
				1,
				1,
				1
			],
			"min":[
				-1,
				-1,
				-1
			],
			"type":"VEC3"
		},
		{
			"bufferView":13,
			"componentType":5126,
			"count":24,
			"type":"VEC3"
		},
		{
			"bufferView":14,
			"componentType":5126,
			"count":24,
			"type":"VEC2"
		},
		{
			"bufferView":15,
			"componentType":5126,
			"count":24,
			"max":[
				1,
				1,
				1
			],
			"min":[
				-1,
				-1,
				-1
			],
			"type":"VEC3"
		},
		{
			"bufferView":16,
			"componentType":5126,
			"count":24,
			"type":"VEC3"
		},
		{
			"bufferView":17,
			"componentType":5126,
			"count":24,
			"type":"VEC2"
		},
		{
			"bufferView":18,
			"componentType":5126,
			"count":24,
			"max":[
				1,
				1,
				1
			],
			"min":[
				-1,
				-1,
				-1
			],
			"type":"VEC3"
		},
		{
			"bufferView":19,
			"componentType":5126,
			"count":24,
			"type":"VEC3"
		},
		{
			"bufferView":20,
			"componentType":5126,
			"count":24,
			"type":"VEC2"
		}
	],
	"bufferViews":[
		{
			"buffer":0,
			"byteLength":288,
			"byteOffset":0,
			"target":34962
		},
		{
			"buffer":0,
			"byteLength":288,
			"byteOffset":288,
			"target":34962
		},
		{
			"buffer":0,
			"byteLength":192,
			"byteOffset":576,
			"target":34962
		},
		{
			"buffer":0,
			"byteLength":72,
			"byteOffset":768,
			"target":34963
		},
		{
			"buffer":0,
			"byteLength":288,
			"byteOffset":840,
			"target":34962
		},
		{
			"buffer":0,
			"byteLength":288,
			"byteOffset":1128,
			"target":34962
		},
		{
			"buffer":0,
			"byteLength":192,
			"byteOffset":1416,
			"target":34962
		},
		{
			"buffer":0,
			"byteLength":72,
			"byteOffset":1608,
			"target":34963
		},
		{
			"buffer":0,
			"byteLength":2304,
			"byteOffset":1680,
			"target":34962
		},
		{
			"buffer":0,
			"byteLength":2304,
			"byteOffset":3984,
			"target":34962
		},
		{
			"buffer":0,
			"byteLength":1536,
			"byteOffset":6288,
			"target":34962
		},
		{
			"buffer":0,
			"byteLength":576,
			"byteOffset":7824,
			"target":34963
		},
		{
			"buffer":0,
			"byteLength":288,
			"byteOffset":8400,
			"target":34962
		},
		{
			"buffer":0,
			"byteLength":288,
			"byteOffset":8688,
			"target":34962
		},
		{
			"buffer":0,
			"byteLength":192,
			"byteOffset":8976,
			"target":34962
		},
		{
			"buffer":0,
			"byteLength":288,
			"byteOffset":9168,
			"target":34962
		},
		{
			"buffer":0,
			"byteLength":288,
			"byteOffset":9456,
			"target":34962
		},
		{
			"buffer":0,
			"byteLength":192,
			"byteOffset":9744,
			"target":34962
		},
		{
			"buffer":0,
			"byteLength":288,
			"byteOffset":9936,
			"target":34962
		},
		{
			"buffer":0,
			"byteLength":288,
			"byteOffset":10224,
			"target":34962
		},
		{
			"buffer":0,
			"byteLength":192,
			"byteOffset":10512,
			"target":34962
		}
	],
	"samplers":[
		{
			"magFilter":9729,
			"minFilter":9987
		}
	],
	"buffers":[
		{
			"byteLength":10704,
			"uri":"bounding.bin"
		}
	]
}
