{
    "asset" : {
        "generator" : "Khronos glTF Blender I/O v1.6.16",
        "version" : "2.0"
    },
    "scene" : 0,
    "scenes" : [
        {
            "name" : "Scene",
            "nodes" : [
                0,
                1,
                2
            ]
        }
    ],
    "nodes" : [
        {
            "name" : "Light",
            "rotation" : [
                0.16907575726509094,
                0.7558803558349609,
                -0.27217137813568115,
                0.570947527885437
            ],
            "translation" : [
                4.076245307922363,
                5.903861999511719,
                -1.0054539442062378
            ]
        },
        {
            "name" : "Camera",
            "rotation" : [
                0.483536034822464,
                0.33687159419059753,
                -0.20870360732078552,
                0.7804827094078064
            ],
            "translation" : [
                7.358891487121582,
                4.958309173583984,
                6.925790786743164
            ]
        },
        {
            "mesh" : 0,
            "name" : "Model"
        }
    ],
    "materials" : [
        {
            "doubleSided" : true,
            "name" : "material_6",
            "pbrMetallicRoughness" : {
                "baseColorTexture" : {
                    "index" : 0
                },
                "metallicFactor" : 0
            }
        },
        {
            "doubleSided" : true,
            "name" : "material_7",
            "pbrMetallicRoughness" : {
                "baseColorTexture" : {
                    "index" : 1
                },
                "metallicFactor" : 0
            }
        },
        {
            "doubleSided" : true,
            "name" : "material_8",
            "pbrMetallicRoughness" : {
                "baseColorTexture" : {
                    "index" : 2
                },
                "metallicFactor" : 0
            }
        },
        {
            "doubleSided" : true,
            "name" : "material_9",
            "pbrMetallicRoughness" : {
                "baseColorTexture" : {
                    "index" : 3
                },
                "metallicFactor" : 0
            }
        },
        {
            "doubleSided" : true,
            "name" : "material_10",
            "pbrMetallicRoughness" : {
                "baseColorTexture" : {
                    "index" : 4
                },
                "metallicFactor" : 0
            }
        },
        {
            "doubleSided" : true,
            "name" : "material_11",
            "pbrMetallicRoughness" : {
                "baseColorTexture" : {
                    "index" : 5
                },
                "metallicFactor" : 0
            }
        },
        {
            "doubleSided" : true,
            "name" : "material_12",
            "pbrMetallicRoughness" : {
                "baseColorTexture" : {
                    "index" : 6
                },
                "metallicFactor" : 0
            }
        }
    ],
    "meshes" : [
        {
            "name" : "Model",
            "primitives" : [
                {
                    "attributes" : {
                        "POSITION" : 0,
                        "NORMAL" : 1,
                        "TEXCOORD_0" : 2
                    },
                    "indices" : 3,
                    "material" : 0
                },
                {
                    "attributes" : {
                        "POSITION" : 4,
                        "NORMAL" : 5,
                        "TEXCOORD_0" : 6
                    },
                    "indices" : 7,
                    "material" : 1
                },
                {
                    "attributes" : {
                        "POSITION" : 8,
                        "NORMAL" : 9,
                        "TEXCOORD_0" : 10
                    },
                    "indices" : 11,
                    "material" : 2
                },
                {
                    "attributes" : {
                        "POSITION" : 12,
                        "NORMAL" : 13,
                        "TEXCOORD_0" : 14
                    },
                    "indices" : 15,
                    "material" : 3
                },
                {
                    "attributes" : {
                        "POSITION" : 16,
                        "NORMAL" : 17,
                        "TEXCOORD_0" : 18
                    },
                    "indices" : 19,
                    "material" : 4
                },
                {
                    "attributes" : {
                        "POSITION" : 20,
                        "NORMAL" : 21,
                        "TEXCOORD_0" : 22
                    },
                    "indices" : 23,
                    "material" : 5
                },
                {
                    "attributes" : {
                        "POSITION" : 24,
                        "NORMAL" : 25,
                        "TEXCOORD_0" : 26
                    },
                    "indices" : 27,
                    "material" : 6
                }
            ]
        }
    ],
    "textures" : [
        {
            "sampler" : 0,
            "source" : 0
        },
        {
            "sampler" : 0,
            "source" : 1
        },
        {
            "sampler" : 0,
            "source" : 2
        },
        {
            "sampler" : 0,
            "source" : 3
        },
        {
            "sampler" : 0,
            "source" : 4
        },
        {
            "sampler" : 0,
            "source" : 5
        },
        {
            "sampler" : 0,
            "source" : 6
        }
    ],
    "images" : [
        {
            "mimeType" : "image/png",
            "name" : "2F69A05D_c",
            "uri" : "2F69A05D_c.png"
        },
        {
            "mimeType" : "image/png",
            "name" : "7CB47817_c",
            "uri" : "7CB47817_c.png"
        },
        {
            "mimeType" : "image/png",
            "name" : "9C2E523_c",
            "uri" : "9C2E523_c.png"
        },
        {
            "mimeType" : "image/png",
            "name" : "5FAF650D_c",
            "uri" : "5FAF650D_c.png"
        },
        {
            "mimeType" : "image/png",
            "name" : "66A13DFF_c",
            "uri" : "66A13DFF_c.png"
        },
        {
            "mimeType" : "image/png",
            "name" : "13FE5980_c",
            "uri" : "13FE5980_c.png"
        },
        {
            "mimeType" : "image/png",
            "name" : "9715CCB_c",
            "uri" : "9715CCB_c.png"
        }
    ],
    "accessors" : [
        {
            "bufferView" : 0,
            "componentType" : 5126,
            "count" : 72,
            "max" : [
                1.5740419626235962,
                16.844642639160156,
                49.514366149902344
            ],
            "min" : [
                -2.745189905166626,
                -16.16913604736328,
                -50.860191345214844
            ],
            "type" : "VEC3"
        },
        {
            "bufferView" : 1,
            "componentType" : 5126,
            "count" : 72,
            "type" : "VEC3"
        },
        {
            "bufferView" : 2,
            "componentType" : 5126,
            "count" : 72,
            "type" : "VEC2"
        },
        {
            "bufferView" : 3,
            "componentType" : 5123,
            "count" : 240,
            "type" : "SCALAR"
        },
        {
            "bufferView" : 4,
            "componentType" : 5126,
            "count" : 36,
            "max" : [
                -0.21283799409866333,
                7.861083507537842,
                -46.42317581176758
            ],
            "min" : [
                -2.4809980392456055,
                5.267280578613281,
                -63.98161315917969
            ],
            "type" : "VEC3"
        },
        {
            "bufferView" : 5,
            "componentType" : 5126,
            "count" : 36,
            "type" : "VEC3"
        },
        {
            "bufferView" : 6,
            "componentType" : 5126,
            "count" : 36,
            "type" : "VEC2"
        },
        {
            "bufferView" : 7,
            "componentType" : 5123,
            "count" : 96,
            "type" : "SCALAR"
        },
        {
            "bufferView" : 8,
            "componentType" : 5126,
            "count" : 6,
            "max" : [
                -0.21693499386310577,
                16.844642639160156,
                -46.37508010864258
            ],
            "min" : [
                -2.4062469005584717,
                9.053022384643555,
                -50.790428161621094
            ],
            "type" : "VEC3"
        },
        {
            "bufferView" : 9,
            "componentType" : 5126,
            "count" : 6,
            "type" : "VEC3"
        },
        {
            "bufferView" : 10,
            "componentType" : 5126,
            "count" : 6,
            "type" : "VEC2"
        },
        {
            "bufferView" : 11,
            "componentType" : 5123,
            "count" : 12,
            "type" : "SCALAR"
        },
        {
            "bufferView" : 12,
            "componentType" : 5126,
            "count" : 34,
            "max" : [
                3.251349925994873,
                11.328337669372559,
                -2.6880910396575928
            ],
            "min" : [
                -5.144423007965088,
                2.934603452682495,
                -46.50404739379883
            ],
            "type" : "VEC3"
        },
        {
            "bufferView" : 13,
            "componentType" : 5126,
            "count" : 34,
            "type" : "VEC3"
        },
        {
            "bufferView" : 14,
            "componentType" : 5126,
            "count" : 34,
            "type" : "VEC2"
        },
        {
            "bufferView" : 15,
            "componentType" : 5123,
            "count" : 84,
            "type" : "SCALAR"
        },
        {
            "bufferView" : 16,
            "componentType" : 5126,
            "count" : 16,
            "max" : [
                3.251349925994873,
                11.328337669372559,
                -2.691204071044922
            ],
            "min" : [
                -5.144423007965088,
                2.934603452682495,
                -46.50087356567383
            ],
            "type" : "VEC3"
        },
        {
            "bufferView" : 17,
            "componentType" : 5126,
            "count" : 16,
            "type" : "VEC3"
        },
        {
            "bufferView" : 18,
            "componentType" : 5126,
            "count" : 16,
            "type" : "VEC2"
        },
        {
            "bufferView" : 19,
            "componentType" : 5123,
            "count" : 48,
            "type" : "SCALAR"
        },
        {
            "bufferView" : 20,
            "componentType" : 5126,
            "count" : 15,
            "max" : [
                1.3579779863357544,
                10.102605819702148,
                19.094440460205078
            ],
            "min" : [
                -3.100517988204956,
                -0.18039807677268982,
                -2.9830150604248047
            ],
            "type" : "VEC3"
        },
        {
            "bufferView" : 21,
            "componentType" : 5126,
            "count" : 15,
            "type" : "VEC3"
        },
        {
            "bufferView" : 22,
            "componentType" : 5126,
            "count" : 15,
            "type" : "VEC2"
        },
        {
            "bufferView" : 23,
            "componentType" : 5123,
            "count" : 24,
            "type" : "SCALAR"
        },
        {
            "bufferView" : 24,
            "componentType" : 5126,
            "count" : 8,
            "max" : [
                1.3579779863357544,
                10.102605819702148,
                19.094440460205078
            ],
            "min" : [
                -3.100517988204956,
                -0.18039807677268982,
                -2.9830150604248047
            ],
            "type" : "VEC3"
        },
        {
            "bufferView" : 25,
            "componentType" : 5126,
            "count" : 8,
            "type" : "VEC3"
        },
        {
            "bufferView" : 26,
            "componentType" : 5126,
            "count" : 8,
            "type" : "VEC2"
        },
        {
            "bufferView" : 27,
            "componentType" : 5123,
            "count" : 12,
            "type" : "SCALAR"
        }
    ],
    "bufferViews" : [
        {
            "buffer" : 0,
            "byteLength" : 864,
            "byteOffset" : 0
        },
        {
            "buffer" : 0,
            "byteLength" : 864,
            "byteOffset" : 864
        },
        {
            "buffer" : 0,
            "byteLength" : 576,
            "byteOffset" : 1728
        },
        {
            "buffer" : 0,
            "byteLength" : 480,
            "byteOffset" : 2304
        },
        {
            "buffer" : 0,
            "byteLength" : 432,
            "byteOffset" : 2784
        },
        {
            "buffer" : 0,
            "byteLength" : 432,
            "byteOffset" : 3216
        },
        {
            "buffer" : 0,
            "byteLength" : 288,
            "byteOffset" : 3648
        },
        {
            "buffer" : 0,
            "byteLength" : 192,
            "byteOffset" : 3936
        },
        {
            "buffer" : 0,
            "byteLength" : 72,
            "byteOffset" : 4128
        },
        {
            "buffer" : 0,
            "byteLength" : 72,
            "byteOffset" : 4200
        },
        {
            "buffer" : 0,
            "byteLength" : 48,
            "byteOffset" : 4272
        },
        {
            "buffer" : 0,
            "byteLength" : 24,
            "byteOffset" : 4320
        },
        {
            "buffer" : 0,
            "byteLength" : 408,
            "byteOffset" : 4344
        },
        {
            "buffer" : 0,
            "byteLength" : 408,
            "byteOffset" : 4752
        },
        {
            "buffer" : 0,
            "byteLength" : 272,
            "byteOffset" : 5160
        },
        {
            "buffer" : 0,
            "byteLength" : 168,
            "byteOffset" : 5432
        },
        {
            "buffer" : 0,
            "byteLength" : 192,
            "byteOffset" : 5600
        },
        {
            "buffer" : 0,
            "byteLength" : 192,
            "byteOffset" : 5792
        },
        {
            "buffer" : 0,
            "byteLength" : 128,
            "byteOffset" : 5984
        },
        {
            "buffer" : 0,
            "byteLength" : 96,
            "byteOffset" : 6112
        },
        {
            "buffer" : 0,
            "byteLength" : 180,
            "byteOffset" : 6208
        },
        {
            "buffer" : 0,
            "byteLength" : 180,
            "byteOffset" : 6388
        },
        {
            "buffer" : 0,
            "byteLength" : 120,
            "byteOffset" : 6568
        },
        {
            "buffer" : 0,
            "byteLength" : 48,
            "byteOffset" : 6688
        },
        {
            "buffer" : 0,
            "byteLength" : 96,
            "byteOffset" : 6736
        },
        {
            "buffer" : 0,
            "byteLength" : 96,
            "byteOffset" : 6832
        },
        {
            "buffer" : 0,
            "byteLength" : 64,
            "byteOffset" : 6928
        },
        {
            "buffer" : 0,
            "byteLength" : 24,
            "byteOffset" : 6992
        }
    ],
    "samplers" : [
        {
            "magFilter" : 9729,
            "minFilter" : 9987
        }
    ],
    "buffers" : [
        {
            "byteLength" : 7016,
            "uri" : "us_ar33.bin"
        }
    ]
}
