{
	"asset":{
		"generator":"Khronos glTF Blender I/O v4.2.60",
		"version":"2.0"
	},
	"scene":0,
	"scenes":[
		{
			"name":"Scene",
			"nodes":[
				5
			]
		}
	],
	"nodes":[
		{
			"mesh":0,
			"name":"campfire"
		},
		{
			"extras":{
				"layers":"billboard flame"
			},
			"mesh":1,
			"name":"flame",
			"scale":[
				10,
				12,
				10
			],
			"translation":[
				0,
				11,
				0
			]
		},
		{
			"mesh":2,
			"name":"ground Plane",
			"scale":[
				100,
				100,
				100
			]
		},
		{
			"extras":{
				"layers":"billboard"
			},
			"mesh":3,
			"name":"moon",
			"scale":[
				5,
				5,
				5
			],
			"translation":[
				-100,
				50,
				100
			]
		},
		{
			"children":[
				0,
				1,
				2,
				3
			],
			"name":"Scene"
		},
		{
			"children":[
				4
			],
			"extras":{
				"extraNodes":1
			},
			"name":"billboard_example"
		}
	],
	"materials":[
		{
			"doubleSided":true,
			"name":"Material.002",
			"pbrMetallicRoughness":{
				"baseColorFactor":[
					0.162641242146492,
					0.162641242146492,
					0.162641242146492,
					1
				],
				"metallicFactor":0,
				"roughnessFactor":0.5
			}
		},
		{
			"doubleSided":true,
			"name":"Material.001",
			"pbrMetallicRoughness":{
				"baseColorFactor":[
					0.16794809699058533,
					0.09048309922218323,
					0.006093279458582401,
					1
				],
				"metallicFactor":0,
				"roughnessFactor":0.5
			}
		},
		{
			"doubleSided":true,
			"extras":{
				"shadingMode":"UnlitTransparentTextured"
			},
			"name":"Flame",
			"pbrMetallicRoughness":{
				"baseColorTexture":{
					"index":0
				},
				"metallicFactor":0,
				"roughnessFactor":0.5
			}
		},
		{
			"doubleSided":true,
			"name":"Grass",
			"pbrMetallicRoughness":{
				"baseColorTexture":{
					"index":1
				},
				"metallicFactor":0,
				"roughnessFactor":0.5
			}
		},
		{
			"doubleSided":true,
			"extras":{
				"shadingMode":"UnlitTransparentTextured"
			},
			"name":"Moon",
			"pbrMetallicRoughness":{
				"baseColorTexture":{
					"index":2
				},
				"metallicFactor":0,
				"roughnessFactor":0.5
			}
		}
	],
	"meshes":[
		{
			"name":"Campfire",
			"primitives":[
				{
					"attributes":{
						"POSITION":0,
						"NORMAL":1,
						"TEXCOORD_0":2
					},
					"indices":3,
					"material":0
				},
				{
					"attributes":{
						"POSITION":4,
						"NORMAL":5,
						"TEXCOORD_0":6
					},
					"indices":7,
					"material":1
				}
			]
		},
		{
			"name":"Flame Quad",
			"primitives":[
				{
					"attributes":{
						"POSITION":8,
						"NORMAL":9,
						"TEXCOORD_0":10,
						"COLOR_0":11,
						"COLOR_1":12
					},
					"indices":13,
					"material":2
				}
			]
		},
		{
			"name":"Ground Quad",
			"primitives":[
				{
					"attributes":{
						"POSITION":14,
						"NORMAL":15,
						"TEXCOORD_0":16,
						"COLOR_0":17,
						"COLOR_1":18
					},
					"indices":13,
					"material":3
				}
			]
		},
		{
			"name":"Moon Quad",
			"primitives":[
				{
					"attributes":{
						"POSITION":19,
						"NORMAL":20,
						"TEXCOORD_0":21,
						"COLOR_0":22,
						"COLOR_1":23
					},
					"indices":13,
					"material":4
				}
			]
		}
	],
	"textures":[
		{
			"sampler":0,
			"source":0
		},
		{
			"sampler":0,
			"source":1
		},
		{
			"sampler":0,
			"source":0
		}
	],
	"images":[
		{
			"mimeType":"image/png",
			"name":"moon",
			"uri":"moon.png"
		},
		{
			"mimeType":"image/png",
			"name":"grass",
			"uri":"grass.png"
		}
	],
	"accessors":[
		{
			"bufferView":0,
			"componentType":5126,
			"count":600,
			"max":[
				26.235183715820312,
				5.572404861450195,
				26.987462997436523
			],
			"min":[
				-27.396442413330078,
				-0.15239477157592773,
				-25.085742950439453
			],
			"type":"VEC3"
		},
		{
			"bufferView":1,
			"componentType":5126,
			"count":600,
			"type":"VEC3"
		},
		{
			"bufferView":2,
			"componentType":5126,
			"count":600,
			"type":"VEC2"
		},
		{
			"bufferView":3,
			"componentType":5123,
			"count":600,
			"type":"SCALAR"
		},
		{
			"bufferView":4,
			"componentType":5126,
			"count":336,
			"max":[
				15.763880729675293,
				5.641107559204102,
				15.769521713256836
			],
			"min":[
				-15.981176376342773,
				0.12813040614128113,
				-16.66227149963379
			],
			"type":"VEC3"
		},
		{
			"bufferView":5,
			"componentType":5126,
			"count":336,
			"type":"VEC3"
		},
		{
			"bufferView":6,
			"componentType":5126,
			"count":336,
			"type":"VEC2"
		},
		{
			"bufferView":7,
			"componentType":5123,
			"count":576,
			"type":"SCALAR"
		},
		{
			"bufferView":8,
			"componentType":5126,
			"count":4,
			"max":[
				1,
				0.8333333730697632,
				2.1855693432826229e-07
			],
			"min":[
				-1,
				-0.8333333730697632,
				-2.1855693432826229e-07
			],
			"type":"VEC3"
		},
		{
			"bufferView":9,
			"componentType":5126,
			"count":4,
			"type":"VEC3"
		},
		{
			"bufferView":10,
			"componentType":5126,
			"count":4,
			"type":"VEC2"
		},
		{
			"bufferView":11,
			"componentType":5121,
			"count":4,
			"normalized":true,
			"type":"VEC4"
		},
		{
			"bufferView":12,
			"componentType":5126,
			"count":4,
			"type":"VEC3"
		},
		{
			"bufferView":13,
			"componentType":5123,
			"count":6,
			"type":"SCALAR"
		},
		{
			"bufferView":14,
			"componentType":5126,
			"count":4,
			"max":[
				1,
				0,
				1
			],
			"min":[
				-1,
				0,
				-1
			],
			"type":"VEC3"
		},
		{
			"bufferView":15,
			"componentType":5126,
			"count":4,
			"type":"VEC3"
		},
		{
			"bufferView":16,
			"componentType":5126,
			"count":4,
			"type":"VEC2"
		},
		{
			"bufferView":17,
			"componentType":5121,
			"count":4,
			"normalized":true,
			"type":"VEC4"
		},
		{
			"bufferView":18,
			"componentType":5126,
			"count":4,
			"type":"VEC3"
		},
		{
			"bufferView":19,
			"componentType":5126,
			"count":4,
			"max":[
				1,
				1,
				4.371138828673793e-08
			],
			"min":[
				-1,
				-1,
				-4.371138828673793e-08
			],
			"type":"VEC3"
		},
		{
			"bufferView":20,
			"componentType":5126,
			"count":4,
			"type":"VEC3"
		},
		{
			"bufferView":21,
			"componentType":5126,
			"count":4,
			"type":"VEC2"
		},
		{
			"bufferView":22,
			"componentType":5121,
			"count":4,
			"normalized":true,
			"type":"VEC4"
		},
		{
			"bufferView":23,
			"componentType":5126,
			"count":4,
			"type":"VEC3"
		}
	],
	"bufferViews":[
		{
			"buffer":0,
			"byteLength":7200,
			"byteOffset":0,
			"target":34962
		},
		{
			"buffer":0,
			"byteLength":7200,
			"byteOffset":7200,
			"target":34962
		},
		{
			"buffer":0,
			"byteLength":4800,
			"byteOffset":14400,
			"target":34962
		},
		{
			"buffer":0,
			"byteLength":1200,
			"byteOffset":19200,
			"target":34963
		},
		{
			"buffer":0,
			"byteLength":4032,
			"byteOffset":20400,
			"target":34962
		},
		{
			"buffer":0,
			"byteLength":4032,
			"byteOffset":24432,
			"target":34962
		},
		{
			"buffer":0,
			"byteLength":2688,
			"byteOffset":28464,
			"target":34962
		},
		{
			"buffer":0,
			"byteLength":1152,
			"byteOffset":31152,
			"target":34963
		},
		{
			"buffer":0,
			"byteLength":48,
			"byteOffset":32304,
			"target":34962
		},
		{
			"buffer":0,
			"byteLength":48,
			"byteOffset":32352,
			"target":34962
		},
		{
			"buffer":0,
			"byteLength":32,
			"byteOffset":32400,
			"target":34962
		},
		{
			"buffer":0,
			"byteLength":16,
			"byteOffset":32432,
			"target":34962
		},
		{
			"buffer":0,
			"byteLength":48,
			"byteOffset":32448,
			"target":34962
		},
		{
			"buffer":0,
			"byteLength":12,
			"byteOffset":32496,
			"target":34963
		},
		{
			"buffer":0,
			"byteLength":48,
			"byteOffset":32508,
			"target":34962
		},
		{
			"buffer":0,
			"byteLength":48,
			"byteOffset":32556,
			"target":34962
		},
		{
			"buffer":0,
			"byteLength":32,
			"byteOffset":32604,
			"target":34962
		},
		{
			"buffer":0,
			"byteLength":16,
			"byteOffset":32636,
			"target":34962
		},
		{
			"buffer":0,
			"byteLength":48,
			"byteOffset":32652,
			"target":34962
		},
		{
			"buffer":0,
			"byteLength":48,
			"byteOffset":32700,
			"target":34962
		},
		{
			"buffer":0,
			"byteLength":48,
			"byteOffset":32748,
			"target":34962
		},
		{
			"buffer":0,
			"byteLength":32,
			"byteOffset":32796,
			"target":34962
		},
		{
			"buffer":0,
			"byteLength":16,
			"byteOffset":32828,
			"target":34962
		},
		{
			"buffer":0,
			"byteLength":48,
			"byteOffset":32844,
			"target":34962
		}
	],
	"samplers":[
		{
			"magFilter":9729,
			"minFilter":9987
		}
	],
	"buffers":[
		{
			"byteLength":32892,
			"uri":"billboard.bin"
		}
	]
}
