{
    "asset": {
        "version": "2.0"
    },
    "scenes": [
        {
            "name": "N64 Logo",
            "nodes": [0]
        }
    ],
    "scene": 0,
    "nodes": [
        {
            "name": "N64 Logo",
            "mesh": 0,
            "rotation": [ 0.7071067690849304, 0, 0, 0.7071067690849304 ]
        }
    ],
    "meshes": [
        {
            "name": "N64 Logo",
            "primitives": [
                {
                    "attributes": {
                        "POSITION": 0
                    },
                    "indices": 1,
                    "material": 0
                },
                {
                    "attributes": {
                        "POSITION": 2
                    },
                    "indices": 3,
                    "material": 1
                },
                {
                    "attributes": {
                        "POSITION": 4
                    },
                    "indices": 5,
                    "material": 2
                },
                {
                    "attributes": {
                        "POSITION": 6
                    },
                    "indices": 7,
                    "material": 3
                }
            ]
        }
    ],
    "materials": [
        {
            "doubleSided" : true,
            "emissiveFactor" : [
                0,
                0,
                0
            ],
            "name" : "Yellow",
            "pbrMetallicRoughness" : {
                "baseColorFactor" : [
                    0.9607843,
                    0.6588235,
                    0.0196078,
                    1
                ],
                "metallicFactor" : 0,
                "roughnessFactor" : 0.5
            }
        },
        {
            "doubleSided" : true,
            "emissiveFactor" : [
                0,
                0,
                0
            ],
            "name" : "Red",
            "pbrMetallicRoughness" : {
                "baseColorFactor" : [
                    0.8784313,
                    0.0392156,
                    0.0784313,
                    1
                ],
                "metallicFactor" : 0,
                "roughnessFactor" : 0.5
            }
        },
        {
            "doubleSided" : true,
            "emissiveFactor" : [
                0,
                0,
                0
            ],
            "name" : "Green",
            "pbrMetallicRoughness" : {
                "baseColorFactor" : [
                    0.1803921,
                    0.5607843,
                    0.0117647,
                    1
                ],
                "metallicFactor" : 0,
                "roughnessFactor" : 0.5
            }
        },
        {
            "doubleSided" : true,
            "emissiveFactor" : [
                0,
                0,
                0
            ],
            "name" : "Blue",
            "pbrMetallicRoughness" : {
                "baseColorFactor" : [
                    0.0,
                    0.0196078,
                    0.5647058,
                    1
                ],
                "metallicFactor" : 0,
                "roughnessFactor" : 0.5
            }
        }
    ],
    "accessors": [
        {
            "bufferView" : 0,
            "componentType" : 5126,
            "count" : 48,
            "max" : [
                48,
                43,
                42
            ],
            "min" : [
                -44,
                -43,
                -42
            ],
            "type" : "VEC3"
        },
        {
            "bufferView" : 1,
            "componentType" : 5123,
            "count" : 48,
            "type" : "SCALAR"
        },
        {
            "bufferView" : 2,
            "componentType" : 5126,
            "count" : 24,
            "max" : [
                48,
                43,
                42
            ],
            "min" : [
                -44,
                -43,
                -42
            ],
            "type" : "VEC3"
        },
        {
            "bufferView" : 3,
            "componentType" : 5123,
            "count" : 24,
            "type" : "SCALAR"
        },
        {
            "bufferView" : 4,
            "componentType" : 5126,
            "count" : 120,
            "max" : [
                48,
                43,
                42
            ],
            "min" : [
                -44,
                -43,
                -42
            ],
            "type" : "VEC3"
        },
        {
            "bufferView" : 5,
            "componentType" : 5123,
            "count" : 120,
            "type" : "SCALAR"
        },
        {
            "bufferView" : 6,
            "componentType" : 5126,
            "count" : 96,
            "max" : [
                48,
                43,
                42
            ],
            "min" : [
                -44,
                -43,
                -42
            ],
            "type" : "VEC3"
        },
        {
            "bufferView" : 7,
            "componentType" : 5123,
            "count" : 96,
            "type" : "SCALAR"
        }
    ],
    "bufferViews": [
        {
            "buffer" : 0,
            "byteLength" : 576,
            "byteOffset" : 0
        },
        {
            "buffer" : 0,
            "byteLength" : 96,
            "byteOffset" : 576
        },
        {
            "buffer" : 0,
            "byteLength" : 288,
            "byteOffset" : 672
        },
        {
            "buffer" : 0,
            "byteLength" : 48,
            "byteOffset" : 960
        },
        {
            "buffer" : 0,
            "byteLength" : 1440,
            "byteOffset" : 1008
        },
        {
            "buffer" : 0,
            "byteLength" : 240,
            "byteOffset" : 2448
        },
        {
            "buffer" : 0,
            "byteLength" : 1152,
            "byteOffset" : 2688
        },
        {
            "buffer" : 0,
            "byteLength" : 192,
            "byteOffset" : 3840
        }
    ],
    "buffers" : [
        {
            "byteLength" : 4032,
            "uri" : "n64_logo.bin"
        }
    ]
}