{
    "asset" : {
        "generator" : "Khronos glTF Blender I/O v1.6.16",
        "version" : "2.0"
    },
    "scene" : 0,
    "scenes" : [
        {
            "name" : "Scene",
            "nodes" : [
                0,
                1,
                2,
                3,
                4,
                5,
                6,
                7,
                8,
                9,
                10,
                11,
                12,
                13
            ]
        }
    ],
    "nodes" : [
        {
            "mesh" : 0,
            "name" : "Cylinder.001",
            "translation" : [
                0,
                -1,
                0
            ]
        },
        {
            "mesh" : 1,
            "name" : "Cube"
        },
        {
            "mesh" : 2,
            "name" : "Cube.001",
            "translation" : [
                0,
                -1,
                0
            ]
        },
        {
            "mesh" : 3,
            "name" : "Cube.002",
            "translation" : [
                0,
                -1,
                0
            ]
        },
        {
            "mesh" : 4,
            "name" : "Cube.003"
        },
        {
            "mesh" : 5,
            "name" : "Cube.004",
            "translation" : [
                0,
                -1,
                0
            ]
        },
        {
            "mesh" : 6,
            "name" : "Cube.005",
            "translation" : [
                0,
                -1,
                0
            ]
        },
        {
            "mesh" : 7,
            "name" : "Cube.008"
        },
        {
            "mesh" : 8,
            "name" : "Cube.007",
            "translation" : [
                0,
                -1,
                0
            ]
        },
        {
            "mesh" : 9,
            "name" : "Cube.006",
            "translation" : [
                0,
                -1,
                0
            ]
        },
        {
            "extras" : {
                "type" : "start"
            },
            "name" : "Empty",
            "scale" : [
                5,
                5,
                5
            ],
            "translation" : [
                0.9283857941627502,
                -0.013362705707550049,
                -1.119751214981079
            ]
        },
        {
            "extras" : {
                "type" : "fire"
            },
            "name" : "Empty.001",
            "scale" : [
                5,
                5,
                5
            ],
            "translation" : [
                -23.86603546142578,
                -0.0235443115234375,
                -40.21107482910156
            ]
        },
        {
            "extras" : {
                "type" : "fire"
            },
            "name" : "Empty.002",
            "scale" : [
                5,
                5,
                5
            ],
            "translation" : [
                -28.413393020629883,
                -0.0235443115234375,
                -40.09379959106445
            ]
        },
        {
            "name" : "Light",
            "rotation" : [
                0.16907575726509094,
                0.7558803558349609,
                -0.27217137813568115,
                0.570947527885437
            ],
            "translation" : [
                4.076245307922363,
                5.903861999511719,
                -1.0054539442062378
            ]
        }
    ],
    "materials" : [
        {
            "doubleSided" : true,
            "name" : "Stone",
            "pbrMetallicRoughness" : {
                "baseColorTexture" : {
                    "index" : 0
                },
                "metallicFactor" : 0,
                "roughnessFactor" : 0.5
            }
        }
    ],
    "meshes" : [
        {
            "name" : "Cylinder.001",
            "primitives" : [
                {
                    "attributes" : {
                        "POSITION" : 0,
                        "NORMAL" : 1,
                        "TEXCOORD_0" : 2
                    },
                    "indices" : 3,
                    "material" : 0
                }
            ]
        },
        {
            "name" : "Cube.001",
            "primitives" : [
                {
                    "attributes" : {
                        "POSITION" : 4,
                        "NORMAL" : 5,
                        "TEXCOORD_0" : 6
                    },
                    "indices" : 7,
                    "material" : 0
                }
            ]
        },
        {
            "name" : "Cube.002",
            "primitives" : [
                {
                    "attributes" : {
                        "POSITION" : 8,
                        "NORMAL" : 9,
                        "TEXCOORD_0" : 10
                    },
                    "indices" : 11,
                    "material" : 0
                }
            ]
        },
        {
            "name" : "Cube.004",
            "primitives" : [
                {
                    "attributes" : {
                        "POSITION" : 12,
                        "NORMAL" : 13,
                        "TEXCOORD_0" : 14
                    },
                    "indices" : 7,
                    "material" : 0
                }
            ]
        },
        {
            "name" : "Cube.005",
            "primitives" : [
                {
                    "attributes" : {
                        "POSITION" : 15,
                        "NORMAL" : 16,
                        "TEXCOORD_0" : 17
                    },
                    "indices" : 18,
                    "material" : 0
                }
            ]
        },
        {
            "name" : "Cube.006",
            "primitives" : [
                {
                    "attributes" : {
                        "POSITION" : 19,
                        "NORMAL" : 20,
                        "TEXCOORD_0" : 21
                    },
                    "indices" : 7,
                    "material" : 0
                }
            ]
        },
        {
            "name" : "Cube.007",
            "primitives" : [
                {
                    "attributes" : {
                        "POSITION" : 22,
                        "NORMAL" : 23,
                        "TEXCOORD_0" : 24
                    },
                    "indices" : 11,
                    "material" : 0
                }
            ]
        },
        {
            "name" : "Cube.010",
            "primitives" : [
                {
                    "attributes" : {
                        "POSITION" : 25,
                        "NORMAL" : 26,
                        "TEXCOORD_0" : 27
                    },
                    "indices" : 28,
                    "material" : 0
                }
            ]
        },
        {
            "name" : "Cube.009",
            "primitives" : [
                {
                    "attributes" : {
                        "POSITION" : 29,
                        "NORMAL" : 30,
                        "TEXCOORD_0" : 31
                    },
                    "indices" : 18,
                    "material" : 0
                }
            ]
        },
        {
            "name" : "Cube.008",
            "primitives" : [
                {
                    "attributes" : {
                        "POSITION" : 32,
                        "NORMAL" : 33,
                        "TEXCOORD_0" : 34
                    },
                    "indices" : 18,
                    "material" : 0
                }
            ]
        }
    ],
    "textures" : [
        {
            "sampler" : 0,
            "source" : 0
        }
    ],
    "images" : [
        {
            "mimeType" : "image/png",
            "name" : "stone",
            "uri" : "stone.png"
        }
    ],
    "accessors" : [
        {
            "bufferView" : 0,
            "componentType" : 5126,
            "count" : 122,
            "max" : [
                -20.586259841918945,
                1.77406907081604,
                -34.5344352722168
            ],
            "min" : [
                -32.274295806884766,
                -1.5091170072555542,
                -45.65353012084961
            ],
            "type" : "VEC3"
        },
        {
            "bufferView" : 1,
            "componentType" : 5126,
            "count" : 122,
            "type" : "VEC3"
        },
        {
            "bufferView" : 2,
            "componentType" : 5126,
            "count" : 122,
            "type" : "VEC2"
        },
        {
            "bufferView" : 3,
            "componentType" : 5123,
            "count" : 198,
            "type" : "SCALAR"
        },
        {
            "bufferView" : 4,
            "componentType" : 5126,
            "count" : 24,
            "max" : [
                -24.14699363708496,
                -0.0091170072555542,
                -23.680381774902344
            ],
            "min" : [
                -28.71356773376465,
                -1.5091170072555542,
                -35.25922393798828
            ],
            "type" : "VEC3"
        },
        {
            "bufferView" : 5,
            "componentType" : 5126,
            "count" : 24,
            "type" : "VEC3"
        },
        {
            "bufferView" : 6,
            "componentType" : 5126,
            "count" : 24,
            "type" : "VEC2"
        },
        {
            "bufferView" : 7,
            "componentType" : 5123,
            "count" : 36,
            "type" : "SCALAR"
        },
        {
            "bufferView" : 8,
            "componentType" : 5126,
            "count" : 24,
            "max" : [
                -1.978629231452942,
                1.7547816038131714,
                -18.402502059936523
            ],
            "min" : [
                -29.340269088745117,
                -1.5091170072555542,
                -19.093666076660156
            ],
            "type" : "VEC3"
        },
        {
            "bufferView" : 9,
            "componentType" : 5126,
            "count" : 24,
            "type" : "VEC3"
        },
        {
            "bufferView" : 10,
            "componentType" : 5126,
            "count" : 24,
            "type" : "VEC2"
        },
        {
            "bufferView" : 11,
            "componentType" : 5123,
            "count" : 36,
            "type" : "SCALAR"
        },
        {
            "bufferView" : 12,
            "componentType" : 5126,
            "count" : 24,
            "max" : [
                -28.720680236816406,
                1.7547816038131714,
                -19.094223022460938
            ],
            "min" : [
                -29.41184425354004,
                -1.5091170072555542,
                -35.15321350097656
            ],
            "type" : "VEC3"
        },
        {
            "bufferView" : 13,
            "componentType" : 5126,
            "count" : 24,
            "type" : "VEC3"
        },
        {
            "bufferView" : 14,
            "componentType" : 5126,
            "count" : 24,
            "type" : "VEC2"
        },
        {
            "bufferView" : 15,
            "componentType" : 5126,
            "count" : 24,
            "max" : [
                -1.9661511182785034,
                -0.023090988397598267,
                -19.106111526489258
            ],
            "min" : [
                -28.68347930908203,
                -1.509013056755066,
                -23.6721134185791
            ],
            "type" : "VEC3"
        },
        {
            "bufferView" : 16,
            "componentType" : 5126,
            "count" : 24,
            "type" : "VEC3"
        },
        {
            "bufferView" : 17,
            "componentType" : 5126,
            "count" : 24,
            "type" : "VEC2"
        },
        {
            "bufferView" : 18,
            "componentType" : 5123,
            "count" : 36,
            "type" : "SCALAR"
        },
        {
            "bufferView" : 19,
            "componentType" : 5126,
            "count" : 24,
            "max" : [
                -23.489116668701172,
                1.7547816038131714,
                -23.65921974182129
            ],
            "min" : [
                -24.180280685424805,
                -1.5091170072555542,
                -35.15321350097656
            ],
            "type" : "VEC3"
        },
        {
            "bufferView" : 20,
            "componentType" : 5126,
            "count" : 24,
            "type" : "VEC3"
        },
        {
            "bufferView" : 21,
            "componentType" : 5126,
            "count" : 24,
            "type" : "VEC2"
        },
        {
            "bufferView" : 22,
            "componentType" : 5126,
            "count" : 24,
            "max" : [
                3.2435266971588135,
                1.7547816038131714,
                -23.65921974182129
            ],
            "min" : [
                -23.637691497802734,
                -1.5091170072555542,
                -24.350383758544922
            ],
            "type" : "VEC3"
        },
        {
            "bufferView" : 23,
            "componentType" : 5126,
            "count" : 24,
            "type" : "VEC3"
        },
        {
            "bufferView" : 24,
            "componentType" : 5126,
            "count" : 24,
            "type" : "VEC2"
        },
        {
            "bufferView" : 25,
            "componentType" : 5126,
            "count" : 24,
            "max" : [
                2.586946964263916,
                -0.009116381406784058,
                -0.09198752045631409
            ],
            "min" : [
                -1.9796267747879028,
                -1.5091164112091064,
                -23.69605827331543
            ],
            "type" : "VEC3"
        },
        {
            "bufferView" : 26,
            "componentType" : 5126,
            "count" : 24,
            "type" : "VEC3"
        },
        {
            "bufferView" : 27,
            "componentType" : 5126,
            "count" : 24,
            "type" : "VEC2"
        },
        {
            "bufferView" : 28,
            "componentType" : 5123,
            "count" : 36,
            "type" : "SCALAR"
        },
        {
            "bufferView" : 29,
            "componentType" : 5126,
            "count" : 24,
            "max" : [
                -1.9867401123046875,
                1.7547821998596191,
                -0.14454925060272217
            ],
            "min" : [
                -2.677903175354004,
                -1.5091164112091064,
                -18.44503402709961
            ],
            "type" : "VEC3"
        },
        {
            "bufferView" : 30,
            "componentType" : 5126,
            "count" : 24,
            "type" : "VEC3"
        },
        {
            "bufferView" : 31,
            "componentType" : 5126,
            "count" : 24,
            "type" : "VEC2"
        },
        {
            "bufferView" : 32,
            "componentType" : 5126,
            "count" : 24,
            "max" : [
                3.244823932647705,
                1.7547821998596191,
                -0.17545996606349945
            ],
            "min" : [
                2.5536603927612305,
                -1.5091164112091064,
                -23.675090789794922
            ],
            "type" : "VEC3"
        },
        {
            "bufferView" : 33,
            "componentType" : 5126,
            "count" : 24,
            "type" : "VEC3"
        },
        {
            "bufferView" : 34,
            "componentType" : 5126,
            "count" : 24,
            "type" : "VEC2"
        }
    ],
    "bufferViews" : [
        {
            "buffer" : 0,
            "byteLength" : 1464,
            "byteOffset" : 0
        },
        {
            "buffer" : 0,
            "byteLength" : 1464,
            "byteOffset" : 1464
        },
        {
            "buffer" : 0,
            "byteLength" : 976,
            "byteOffset" : 2928
        },
        {
            "buffer" : 0,
            "byteLength" : 396,
            "byteOffset" : 3904
        },
        {
            "buffer" : 0,
            "byteLength" : 288,
            "byteOffset" : 4300
        },
        {
            "buffer" : 0,
            "byteLength" : 288,
            "byteOffset" : 4588
        },
        {
            "buffer" : 0,
            "byteLength" : 192,
            "byteOffset" : 4876
        },
        {
            "buffer" : 0,
            "byteLength" : 72,
            "byteOffset" : 5068
        },
        {
            "buffer" : 0,
            "byteLength" : 288,
            "byteOffset" : 5140
        },
        {
            "buffer" : 0,
            "byteLength" : 288,
            "byteOffset" : 5428
        },
        {
            "buffer" : 0,
            "byteLength" : 192,
            "byteOffset" : 5716
        },
        {
            "buffer" : 0,
            "byteLength" : 72,
            "byteOffset" : 5908
        },
        {
            "buffer" : 0,
            "byteLength" : 288,
            "byteOffset" : 5980
        },
        {
            "buffer" : 0,
            "byteLength" : 288,
            "byteOffset" : 6268
        },
        {
            "buffer" : 0,
            "byteLength" : 192,
            "byteOffset" : 6556
        },
        {
            "buffer" : 0,
            "byteLength" : 288,
            "byteOffset" : 6748
        },
        {
            "buffer" : 0,
            "byteLength" : 288,
            "byteOffset" : 7036
        },
        {
            "buffer" : 0,
            "byteLength" : 192,
            "byteOffset" : 7324
        },
        {
            "buffer" : 0,
            "byteLength" : 72,
            "byteOffset" : 7516
        },
        {
            "buffer" : 0,
            "byteLength" : 288,
            "byteOffset" : 7588
        },
        {
            "buffer" : 0,
            "byteLength" : 288,
            "byteOffset" : 7876
        },
        {
            "buffer" : 0,
            "byteLength" : 192,
            "byteOffset" : 8164
        },
        {
            "buffer" : 0,
            "byteLength" : 288,
            "byteOffset" : 8356
        },
        {
            "buffer" : 0,
            "byteLength" : 288,
            "byteOffset" : 8644
        },
        {
            "buffer" : 0,
            "byteLength" : 192,
            "byteOffset" : 8932
        },
        {
            "buffer" : 0,
            "byteLength" : 288,
            "byteOffset" : 9124
        },
        {
            "buffer" : 0,
            "byteLength" : 288,
            "byteOffset" : 9412
        },
        {
            "buffer" : 0,
            "byteLength" : 192,
            "byteOffset" : 9700
        },
        {
            "buffer" : 0,
            "byteLength" : 72,
            "byteOffset" : 9892
        },
        {
            "buffer" : 0,
            "byteLength" : 288,
            "byteOffset" : 9964
        },
        {
            "buffer" : 0,
            "byteLength" : 288,
            "byteOffset" : 10252
        },
        {
            "buffer" : 0,
            "byteLength" : 192,
            "byteOffset" : 10540
        },
        {
            "buffer" : 0,
            "byteLength" : 288,
            "byteOffset" : 10732
        },
        {
            "buffer" : 0,
            "byteLength" : 288,
            "byteOffset" : 11020
        },
        {
            "buffer" : 0,
            "byteLength" : 192,
            "byteOffset" : 11308
        }
    ],
    "samplers" : [
        {
            "magFilter" : 9729,
            "minFilter" : 9987
        }
    ],
    "buffers" : [
        {
            "byteLength" : 11500,
            "uri" : "simple_scene.bin"
        }
    ]
}
