{
    "asset" : {
        "generator" : "Khronos glTF Blender I/O v1.6.16",
        "version" : "2.0"
    },
    "scene" : 0,
    "scenes" : [
        {
            "name" : "Scene",
            "nodes" : [
                0,
                1,
                2,
                3,
                4,
                5,
                6,
                7,
                8,
                9,
                10,
                11,
                12,
                13,
                14,
                15,
                16
            ]
        }
    ],
    "nodes" : [
        {
            "mesh" : 0,
            "name" : "Cylinder.001"
        },
        {
            "mesh" : 1,
            "name" : "Cube"
        },
        {
            "mesh" : 2,
            "name" : "Cube.001"
        },
        {
            "mesh" : 3,
            "name" : "Cube.002"
        },
        {
            "mesh" : 4,
            "name" : "Cube.003"
        },
        {
            "mesh" : 5,
            "name" : "Cube.004"
        },
        {
            "mesh" : 6,
            "name" : "Cube.005"
        },
        {
            "mesh" : 7,
            "name" : "Cube.008"
        },
        {
            "mesh" : 8,
            "name" : "Cube.007"
        },
        {
            "mesh" : 9,
            "name" : "Cube.006"
        },
        {
            "mesh" : 10,
            "name" : "Cylinder.002"
        },
        {
            "mesh" : 11,
            "name" : "Cube.009"
        },
        {
            "mesh" : 12,
            "name" : "Cube.010"
        },
        {
            "extras" : {
                "type" : "start"
            },
            "name" : "Player Start",
            "scale" : [
                5,
                5,
                5
            ],
            "translation" : [
                0.9283857941627502,
                -0.013362705707550049,
                -1.119751214981079
            ]
        },
        {
            "extras" : {
                "type" : "fire"
            },
            "name" : "Flame 2",
            "scale" : [
                5,
                5,
                5
            ],
            "translation" : [
                -23.86603546142578,
                6.218969821929932,
                -59.447174072265625
            ]
        },
        {
            "extras" : {
                "type" : "fire"
            },
            "name" : "Flame 1",
            "scale" : [
                5,
                5,
                5
            ],
            "translation" : [
                -28.413393020629883,
                6.218969821929932,
                -59.32990264892578
            ]
        },
        {
            "name" : "Light",
            "rotation" : [
                0.16907575726509094,
                0.7558803558349609,
                -0.27217137813568115,
                0.570947527885437
            ],
            "translation" : [
                4.076245307922363,
                5.903861999511719,
                -1.0054539442062378
            ]
        }
    ],
    "materials" : [
        {
            "doubleSided" : true,
            "name" : "Stone",
            "pbrMetallicRoughness" : {
                "baseColorTexture" : {
                    "index" : 0
                },
                "metallicFactor" : 0,
                "roughnessFactor" : 0.5
            }
        }
    ],
    "meshes" : [
        {
            "name" : "Cylinder.001",
            "primitives" : [
                {
                    "attributes" : {
                        "POSITION" : 0,
                        "NORMAL" : 1,
                        "TEXCOORD_0" : 2
                    },
                    "indices" : 3,
                    "material" : 0
                }
            ]
        },
        {
            "name" : "Cube.001",
            "primitives" : [
                {
                    "attributes" : {
                        "POSITION" : 4,
                        "NORMAL" : 5,
                        "TEXCOORD_0" : 6
                    },
                    "indices" : 7,
                    "material" : 0
                }
            ]
        },
        {
            "name" : "Cube.002",
            "primitives" : [
                {
                    "attributes" : {
                        "POSITION" : 8,
                        "NORMAL" : 9,
                        "TEXCOORD_0" : 10
                    },
                    "indices" : 11,
                    "material" : 0
                }
            ]
        },
        {
            "name" : "Cube.004",
            "primitives" : [
                {
                    "attributes" : {
                        "POSITION" : 12,
                        "NORMAL" : 13,
                        "TEXCOORD_0" : 14
                    },
                    "indices" : 15,
                    "material" : 0
                }
            ]
        },
        {
            "name" : "Cube.005",
            "primitives" : [
                {
                    "attributes" : {
                        "POSITION" : 16,
                        "NORMAL" : 17,
                        "TEXCOORD_0" : 18
                    },
                    "indices" : 19,
                    "material" : 0
                }
            ]
        },
        {
            "name" : "Cube.006",
            "primitives" : [
                {
                    "attributes" : {
                        "POSITION" : 20,
                        "NORMAL" : 21,
                        "TEXCOORD_0" : 22
                    },
                    "indices" : 15,
                    "material" : 0
                }
            ]
        },
        {
            "name" : "Cube.007",
            "primitives" : [
                {
                    "attributes" : {
                        "POSITION" : 23,
                        "NORMAL" : 24,
                        "TEXCOORD_0" : 25
                    },
                    "indices" : 11,
                    "material" : 0
                }
            ]
        },
        {
            "name" : "Cube.010",
            "primitives" : [
                {
                    "attributes" : {
                        "POSITION" : 26,
                        "NORMAL" : 27,
                        "TEXCOORD_0" : 28
                    },
                    "indices" : 29,
                    "material" : 0
                }
            ]
        },
        {
            "name" : "Cube.009",
            "primitives" : [
                {
                    "attributes" : {
                        "POSITION" : 30,
                        "NORMAL" : 31,
                        "TEXCOORD_0" : 32
                    },
                    "indices" : 19,
                    "material" : 0
                }
            ]
        },
        {
            "name" : "Cube.008",
            "primitives" : [
                {
                    "attributes" : {
                        "POSITION" : 33,
                        "NORMAL" : 34,
                        "TEXCOORD_0" : 35
                    },
                    "indices" : 19,
                    "material" : 0
                }
            ]
        },
        {
            "name" : "Cylinder.002",
            "primitives" : [
                {
                    "attributes" : {
                        "POSITION" : 36,
                        "NORMAL" : 37,
                        "TEXCOORD_0" : 38
                    },
                    "indices" : 39,
                    "material" : 0
                }
            ]
        },
        {
            "name" : "Cube",
            "primitives" : [
                {
                    "attributes" : {
                        "POSITION" : 40,
                        "NORMAL" : 41,
                        "TEXCOORD_0" : 42
                    },
                    "indices" : 15,
                    "material" : 0
                }
            ]
        },
        {
            "name" : "Cube.011",
            "primitives" : [
                {
                    "attributes" : {
                        "POSITION" : 43,
                        "NORMAL" : 44,
                        "TEXCOORD_0" : 45
                    },
                    "indices" : 15,
                    "material" : 0
                }
            ]
        }
    ],
    "textures" : [
        {
            "sampler" : 0,
            "source" : 0
        }
    ],
    "images" : [
        {
            "mimeType" : "image/png",
            "name" : "stone",
            "uri" : "stone.png"
        }
    ],
    "accessors" : [
        {
            "bufferView" : 0,
            "componentType" : 5126,
            "count" : 43,
            "max" : [
                -20.586259841918945,
                6.502036094665527,
                -53.713897705078125
            ],
            "min" : [
                -32.274295806884766,
                4.261529922485352,
                -64.83299255371094
            ],
            "type" : "VEC3"
        },
        {
            "bufferView" : 1,
            "componentType" : 5126,
            "count" : 43,
            "type" : "VEC3"
        },
        {
            "bufferView" : 2,
            "componentType" : 5126,
            "count" : 43,
            "type" : "VEC2"
        },
        {
            "bufferView" : 3,
            "componentType" : 5123,
            "count" : 75,
            "type" : "SCALAR"
        },
        {
            "bufferView" : 4,
            "componentType" : 5126,
            "count" : 16,
            "max" : [
                -24.14699363708496,
                -0.0091170072555542,
                -23.680381774902344
            ],
            "min" : [
                -28.71356773376465,
                -1.5091170072555542,
                -35.25922393798828
            ],
            "type" : "VEC3"
        },
        {
            "bufferView" : 5,
            "componentType" : 5126,
            "count" : 16,
            "type" : "VEC3"
        },
        {
            "bufferView" : 6,
            "componentType" : 5126,
            "count" : 16,
            "type" : "VEC2"
        },
        {
            "bufferView" : 7,
            "componentType" : 5123,
            "count" : 24,
            "type" : "SCALAR"
        },
        {
            "bufferView" : 8,
            "componentType" : 5126,
            "count" : 20,
            "max" : [
                -1.978629231452942,
                1.7547816038131714,
                -18.402502059936523
            ],
            "min" : [
                -29.340269088745117,
                -1.5091171264648438,
                -19.093666076660156
            ],
            "type" : "VEC3"
        },
        {
            "bufferView" : 9,
            "componentType" : 5126,
            "count" : 20,
            "type" : "VEC3"
        },
        {
            "bufferView" : 10,
            "componentType" : 5126,
            "count" : 20,
            "type" : "VEC2"
        },
        {
            "bufferView" : 11,
            "componentType" : 5123,
            "count" : 30,
            "type" : "SCALAR"
        },
        {
            "bufferView" : 12,
            "componentType" : 5126,
            "count" : 20,
            "max" : [
                -28.720680236816406,
                1.7547816038131714,
                -19.094223022460938
            ],
            "min" : [
                -29.41184425354004,
                -1.5091171264648438,
                -35.15321350097656
            ],
            "type" : "VEC3"
        },
        {
            "bufferView" : 13,
            "componentType" : 5126,
            "count" : 20,
            "type" : "VEC3"
        },
        {
            "bufferView" : 14,
            "componentType" : 5126,
            "count" : 20,
            "type" : "VEC2"
        },
        {
            "bufferView" : 15,
            "componentType" : 5123,
            "count" : 30,
            "type" : "SCALAR"
        },
        {
            "bufferView" : 16,
            "componentType" : 5126,
            "count" : 20,
            "max" : [
                -1.9661511182785034,
                -0.023090988397598267,
                -19.106111526489258
            ],
            "min" : [
                -28.68347930908203,
                -1.509013056755066,
                -23.6721134185791
            ],
            "type" : "VEC3"
        },
        {
            "bufferView" : 17,
            "componentType" : 5126,
            "count" : 20,
            "type" : "VEC3"
        },
        {
            "bufferView" : 18,
            "componentType" : 5126,
            "count" : 20,
            "type" : "VEC2"
        },
        {
            "bufferView" : 19,
            "componentType" : 5123,
            "count" : 30,
            "type" : "SCALAR"
        },
        {
            "bufferView" : 20,
            "componentType" : 5126,
            "count" : 20,
            "max" : [
                -23.489116668701172,
                1.7547816038131714,
                -23.65921974182129
            ],
            "min" : [
                -24.180280685424805,
                -1.5091171264648438,
                -35.15321350097656
            ],
            "type" : "VEC3"
        },
        {
            "bufferView" : 21,
            "componentType" : 5126,
            "count" : 20,
            "type" : "VEC3"
        },
        {
            "bufferView" : 22,
            "componentType" : 5126,
            "count" : 20,
            "type" : "VEC2"
        },
        {
            "bufferView" : 23,
            "componentType" : 5126,
            "count" : 20,
            "max" : [
                3.2435266971588135,
                1.7547816038131714,
                -23.65921974182129
            ],
            "min" : [
                -23.637691497802734,
                -1.5091171264648438,
                -24.350383758544922
            ],
            "type" : "VEC3"
        },
        {
            "bufferView" : 24,
            "componentType" : 5126,
            "count" : 20,
            "type" : "VEC3"
        },
        {
            "bufferView" : 25,
            "componentType" : 5126,
            "count" : 20,
            "type" : "VEC2"
        },
        {
            "bufferView" : 26,
            "componentType" : 5126,
            "count" : 20,
            "max" : [
                2.586946964263916,
                -0.009116381406784058,
                -0.09198752045631409
            ],
            "min" : [
                -1.9796267747879028,
                -1.5091164112091064,
                -23.69605827331543
            ],
            "type" : "VEC3"
        },
        {
            "bufferView" : 27,
            "componentType" : 5126,
            "count" : 20,
            "type" : "VEC3"
        },
        {
            "bufferView" : 28,
            "componentType" : 5126,
            "count" : 20,
            "type" : "VEC2"
        },
        {
            "bufferView" : 29,
            "componentType" : 5123,
            "count" : 30,
            "type" : "SCALAR"
        },
        {
            "bufferView" : 30,
            "componentType" : 5126,
            "count" : 20,
            "max" : [
                -1.9867401123046875,
                1.7547821998596191,
                -0.14454925060272217
            ],
            "min" : [
                -2.677903175354004,
                -1.5091164112091064,
                -18.44503402709961
            ],
            "type" : "VEC3"
        },
        {
            "bufferView" : 31,
            "componentType" : 5126,
            "count" : 20,
            "type" : "VEC3"
        },
        {
            "bufferView" : 32,
            "componentType" : 5126,
            "count" : 20,
            "type" : "VEC2"
        },
        {
            "bufferView" : 33,
            "componentType" : 5126,
            "count" : 20,
            "max" : [
                3.244823932647705,
                1.7547821998596191,
                -0.17545996606349945
            ],
            "min" : [
                2.5536603927612305,
                -1.5091164112091064,
                -23.675090789794922
            ],
            "type" : "VEC3"
        },
        {
            "bufferView" : 34,
            "componentType" : 5126,
            "count" : 20,
            "type" : "VEC3"
        },
        {
            "bufferView" : 35,
            "componentType" : 5126,
            "count" : 20,
            "type" : "VEC2"
        },
        {
            "bufferView" : 36,
            "componentType" : 5126,
            "count" : 62,
            "max" : [
                -20.586259841918945,
                7.481382846832275,
                -53.713897705078125
            ],
            "min" : [
                -32.274295806884766,
                5.761529922485352,
                -64.83299255371094
            ],
            "type" : "VEC3"
        },
        {
            "bufferView" : 37,
            "componentType" : 5126,
            "count" : 62,
            "type" : "VEC3"
        },
        {
            "bufferView" : 38,
            "componentType" : 5126,
            "count" : 62,
            "type" : "VEC2"
        },
        {
            "bufferView" : 39,
            "componentType" : 5123,
            "count" : 108,
            "type" : "SCALAR"
        },
        {
            "bufferView" : 40,
            "componentType" : 5126,
            "count" : 20,
            "max" : [
                -21.196298599243164,
                3.1249661445617676,
                -39.72960662841797
            ],
            "min" : [
                -31.228986740112305,
                1.6690477132797241,
                -43.038841247558594
            ],
            "type" : "VEC3"
        },
        {
            "bufferView" : 41,
            "componentType" : 5126,
            "count" : 20,
            "type" : "VEC3"
        },
        {
            "bufferView" : 42,
            "componentType" : 5126,
            "count" : 20,
            "type" : "VEC2"
        },
        {
            "bufferView" : 43,
            "componentType" : 5126,
            "count" : 20,
            "max" : [
                -21.196298599243164,
                5.102320671081543,
                -47.22779846191406
            ],
            "min" : [
                -31.228986740112305,
                3.646401882171631,
                -50.53703308105469
            ],
            "type" : "VEC3"
        },
        {
            "bufferView" : 44,
            "componentType" : 5126,
            "count" : 20,
            "type" : "VEC3"
        },
        {
            "bufferView" : 45,
            "componentType" : 5126,
            "count" : 20,
            "type" : "VEC2"
        }
    ],
    "bufferViews" : [
        {
            "buffer" : 0,
            "byteLength" : 516,
            "byteOffset" : 0
        },
        {
            "buffer" : 0,
            "byteLength" : 516,
            "byteOffset" : 516
        },
        {
            "buffer" : 0,
            "byteLength" : 344,
            "byteOffset" : 1032
        },
        {
            "buffer" : 0,
            "byteLength" : 150,
            "byteOffset" : 1376
        },
        {
            "buffer" : 0,
            "byteLength" : 192,
            "byteOffset" : 1528
        },
        {
            "buffer" : 0,
            "byteLength" : 192,
            "byteOffset" : 1720
        },
        {
            "buffer" : 0,
            "byteLength" : 128,
            "byteOffset" : 1912
        },
        {
            "buffer" : 0,
            "byteLength" : 48,
            "byteOffset" : 2040
        },
        {
            "buffer" : 0,
            "byteLength" : 240,
            "byteOffset" : 2088
        },
        {
            "buffer" : 0,
            "byteLength" : 240,
            "byteOffset" : 2328
        },
        {
            "buffer" : 0,
            "byteLength" : 160,
            "byteOffset" : 2568
        },
        {
            "buffer" : 0,
            "byteLength" : 60,
            "byteOffset" : 2728
        },
        {
            "buffer" : 0,
            "byteLength" : 240,
            "byteOffset" : 2788
        },
        {
            "buffer" : 0,
            "byteLength" : 240,
            "byteOffset" : 3028
        },
        {
            "buffer" : 0,
            "byteLength" : 160,
            "byteOffset" : 3268
        },
        {
            "buffer" : 0,
            "byteLength" : 60,
            "byteOffset" : 3428
        },
        {
            "buffer" : 0,
            "byteLength" : 240,
            "byteOffset" : 3488
        },
        {
            "buffer" : 0,
            "byteLength" : 240,
            "byteOffset" : 3728
        },
        {
            "buffer" : 0,
            "byteLength" : 160,
            "byteOffset" : 3968
        },
        {
            "buffer" : 0,
            "byteLength" : 60,
            "byteOffset" : 4128
        },
        {
            "buffer" : 0,
            "byteLength" : 240,
            "byteOffset" : 4188
        },
        {
            "buffer" : 0,
            "byteLength" : 240,
            "byteOffset" : 4428
        },
        {
            "buffer" : 0,
            "byteLength" : 160,
            "byteOffset" : 4668
        },
        {
            "buffer" : 0,
            "byteLength" : 240,
            "byteOffset" : 4828
        },
        {
            "buffer" : 0,
            "byteLength" : 240,
            "byteOffset" : 5068
        },
        {
            "buffer" : 0,
            "byteLength" : 160,
            "byteOffset" : 5308
        },
        {
            "buffer" : 0,
            "byteLength" : 240,
            "byteOffset" : 5468
        },
        {
            "buffer" : 0,
            "byteLength" : 240,
            "byteOffset" : 5708
        },
        {
            "buffer" : 0,
            "byteLength" : 160,
            "byteOffset" : 5948
        },
        {
            "buffer" : 0,
            "byteLength" : 60,
            "byteOffset" : 6108
        },
        {
            "buffer" : 0,
            "byteLength" : 240,
            "byteOffset" : 6168
        },
        {
            "buffer" : 0,
            "byteLength" : 240,
            "byteOffset" : 6408
        },
        {
            "buffer" : 0,
            "byteLength" : 160,
            "byteOffset" : 6648
        },
        {
            "buffer" : 0,
            "byteLength" : 240,
            "byteOffset" : 6808
        },
        {
            "buffer" : 0,
            "byteLength" : 240,
            "byteOffset" : 7048
        },
        {
            "buffer" : 0,
            "byteLength" : 160,
            "byteOffset" : 7288
        },
        {
            "buffer" : 0,
            "byteLength" : 744,
            "byteOffset" : 7448
        },
        {
            "buffer" : 0,
            "byteLength" : 744,
            "byteOffset" : 8192
        },
        {
            "buffer" : 0,
            "byteLength" : 496,
            "byteOffset" : 8936
        },
        {
            "buffer" : 0,
            "byteLength" : 216,
            "byteOffset" : 9432
        },
        {
            "buffer" : 0,
            "byteLength" : 240,
            "byteOffset" : 9648
        },
        {
            "buffer" : 0,
            "byteLength" : 240,
            "byteOffset" : 9888
        },
        {
            "buffer" : 0,
            "byteLength" : 160,
            "byteOffset" : 10128
        },
        {
            "buffer" : 0,
            "byteLength" : 240,
            "byteOffset" : 10288
        },
        {
            "buffer" : 0,
            "byteLength" : 240,
            "byteOffset" : 10528
        },
        {
            "buffer" : 0,
            "byteLength" : 160,
            "byteOffset" : 10768
        }
    ],
    "samplers" : [
        {
            "magFilter" : 9729,
            "minFilter" : 9987
        }
    ],
    "buffers" : [
        {
            "byteLength" : 10928,
            "uri" : "simple_scene.bin"
        }
    ]
}
