{
	"asset":{
		"generator":"Khronos glTF Blender I/O v4.0.44",
		"version":"2.0"
	},
	"scene":0,
	"scenes":[
		{
			"name":"Scene",
			"nodes":[
				15,
				21,
				31,
				41,
				47,
				53
			]
		}
	],
	"nodes":[
		{
			"extras":{
				"layers":"obstacles"
			},
			"mesh":0,
			"name":"Arch Pillar",
			"scale":[
				3,
				10,
				3
			],
			"translation":[
				10,
				10,
				24
			]
		},
		{
			"extras":{
				"layers":"obstacles"
			},
			"mesh":0,
			"name":"Arch Pillar.001",
			"scale":[
				3,
				10,
				3
			],
			"translation":[
				-10,
				10,
				24
			]
		},
		{
			"extras":{
				"layers":"obstacles"
			},
			"mesh":0,
			"name":"Arch Pillar.002",
			"scale":[
				3,
				10,
				3
			],
			"translation":[
				-10,
				10,
				-34
			]
		},
		{
			"extras":{
				"layers":"obstacles"
			},
			"mesh":0,
			"name":"Arch Pillar.003",
			"scale":[
				3,
				10,
				3
			],
			"translation":[
				10,
				10,
				-34
			]
		},
		{
			"extras":{
				"layers":"obstacles"
			},
			"mesh":0,
			"name":"Arch Pillar.004",
			"rotation":[
				0,
				0.7071068286895752,
				0,
				0.7071067094802856
			],
			"scale":[
				3.000000476837158,
				10,
				3.000000476837158
			],
			"translation":[
				29,
				10,
				1
			]
		},
		{
			"extras":{
				"layers":"obstacles"
			},
			"mesh":0,
			"name":"Arch Pillar.005",
			"rotation":[
				0,
				0.7071068286895752,
				0,
				0.7071067094802856
			],
			"scale":[
				3.000000476837158,
				10,
				3.000000476837158
			],
			"translation":[
				29,
				10,
				-19
			]
		},
		{
			"extras":{
				"layers":"obstacles"
			},
			"mesh":0,
			"name":"Arch Pillar.006",
			"rotation":[
				0,
				0.7071068286895752,
				0,
				0.7071067094802856
			],
			"scale":[
				3.000000476837158,
				10,
				3.000000476837158
			],
			"translation":[
				-31,
				10,
				1
			]
		},
		{
			"extras":{
				"layers":"obstacles"
			},
			"mesh":0,
			"name":"Arch Pillar.007",
			"rotation":[
				0,
				0.7071068286895752,
				0,
				0.7071067094802856
			],
			"scale":[
				3.000000476837158,
				10,
				3.000000476837158
			],
			"translation":[
				-31,
				10,
				-19
			]
		},
		{
			"extras":{
				"collider":"none"
			},
			"mesh":1,
			"name":"Arch Top",
			"rotation":[
				0,
				0,
				-0.7071066498756409,
				0.70710688829422
			],
			"scale":[
				2.999999761581421,
				9.999999046325684,
				3
			],
			"translation":[
				-3,
				23,
				24
			]
		},
		{
			"extras":{
				"collider":"none"
			},
			"mesh":1,
			"name":"Arch Top.001",
			"rotation":[
				0,
				0,
				-0.7071066498756409,
				0.70710688829422
			],
			"scale":[
				2.999999761581421,
				9.999999046325684,
				3
			],
			"translation":[
				-3,
				23,
				-34
			]
		},
		{
			"extras":{
				"collider":"none"
			},
			"mesh":1,
			"name":"Arch Top.002",
			"rotation":[
				-0.5000000596046448,
				0.5,
				-0.4999999403953552,
				0.5
			],
			"scale":[
				3,
				10,
				3
			],
			"translation":[
				29,
				23,
				-6
			]
		},
		{
			"extras":{
				"collider":"none"
			},
			"mesh":1,
			"name":"Arch Top.003",
			"rotation":[
				-0.5000000596046448,
				0.5,
				-0.4999999403953552,
				0.5
			],
			"scale":[
				3,
				10,
				3
			],
			"translation":[
				-31,
				23,
				-6
			]
		},
		{
			"extras":{
				"layers":"ground"
			},
			"mesh":2,
			"name":"Ground"
		},
		{
			"extras":{
				"layers":"triggers",
				"collider":"transform"
			},
			"name":"Trigger",
			"scale":[
				50,
				20,
				5
			],
			"translation":[
				0,
				20,
				0
			]
		},
		{
			"children":[
				0,
				1,
				2,
				3,
				4,
				5,
				6,
				7,
				8,
				9,
				10,
				11,
				12,
				13
			],
			"name":"Scene"
		},
		{
			"children":[
				14
			],
			"name":"tile_arches"
		},
		{
			"extras":{
				"layers":"obstacles"
			},
			"mesh":3,
			"name":"Cube.001",
			"rotation":[
				0,
				-1,
				0,
				4.371138828673793e-08
			],
			"translation":[
				-16,
				25,
				0
			]
		},
		{
			"extras":{
				"layers":"obstacles"
			},
			"mesh":3,
			"name":"Cube.002",
			"translation":[
				22,
				25,
				0
			]
		},
		{
			"extras":{
				"layers":"ground"
			},
			"mesh":2,
			"name":"Ground.001"
		},
		{
			"extras":{
				"layers":"triggers",
				"collider":"transform"
			},
			"name":"Trigger.001",
			"scale":[
				50,
				20,
				5
			],
			"translation":[
				0,
				20,
				0
			]
		},
		{
			"children":[
				16,
				17,
				18,
				19
			],
			"name":"Scene.001"
		},
		{
			"children":[
				20
			],
			"name":"tile_cubes",
			"translation":[
				-100,
				0,
				0
			]
		},
		{
			"extras":{
				"layers":"ground"
			},
			"mesh":2,
			"name":"Ground.002"
		},
		{
			"name":"Bounding.001",
			"scale":[
				4.060000419616699,
				21.119998931884766,
				4.800000190734863
			],
			"translation":[
				0,
				10.655029296875,
				-1.0316571206203662e-05
			]
		},
		{
			"children":[
				23
			],
			"extras":{
				"layers":"obstacles"
			},
			"mesh":4,
			"name":"Tree.001",
			"rotation":[
				0,
				0.7071068286895752,
				0,
				0.7071067094802856
			],
			"translation":[
				0,
				10,
				20
			]
		},
		{
			"name":"Bounding",
			"scale":[
				4.059999942779541,
				21.119998931884766,
				4.799999713897705
			],
			"translation":[
				3.648545316536911e-06,
				11.29275131225586,
				2.955894387923763e-06
			]
		},
		{
			"children":[
				25
			],
			"extras":{
				"layers":"obstacles"
			},
			"mesh":4,
			"name":"Tree",
			"rotation":[
				0,
				0.7071068286895752,
				0,
				0.7071067094802856
			],
			"translation":[
				29,
				10,
				-22
			]
		},
		{
			"name":"Bounding.002",
			"scale":[
				4.060000419616699,
				21.119998931884766,
				4.800000190734863
			],
			"translation":[
				0,
				10.046222686767578,
				3.762047072086716e-06
			]
		},
		{
			"children":[
				27
			],
			"extras":{
				"layers":"obstacles"
			},
			"mesh":4,
			"name":"Tree.002",
			"rotation":[
				0,
				0.7071068286895752,
				0,
				0.7071067094802856
			],
			"translation":[
				-35,
				10,
				-28
			]
		},
		{
			"extras":{
				"layers":"triggers",
				"collider":"transform"
			},
			"name":"Trigger.005",
			"scale":[
				50,
				20,
				5
			],
			"translation":[
				0,
				20,
				0
			]
		},
		{
			"children":[
				22,
				24,
				26,
				28,
				29
			],
			"name":"Scene.002"
		},
		{
			"children":[
				30
			],
			"name":"tile_trees",
			"translation":[
				100,
				0,
				0
			]
		},
		{
			"extras":{
				"layers":"obstacles"
			},
			"mesh":5,
			"name":"Cylinder",
			"scale":[
				1,
				2.20058274269104,
				1
			],
			"translation":[
				36,
				11,
				-9
			]
		},
		{
			"extras":{
				"layers":"obstacles"
			},
			"mesh":5,
			"name":"Cylinder.001",
			"scale":[
				1,
				2.20058274269104,
				1
			],
			"translation":[
				-28,
				11,
				26
			]
		},
		{
			"extras":{
				"layers":"obstacles"
			},
			"mesh":5,
			"name":"Cylinder.002",
			"scale":[
				1,
				2.20058274269104,
				1
			],
			"translation":[
				36,
				11,
				-41
			]
		},
		{
			"extras":{
				"layers":"obstacles"
			},
			"mesh":5,
			"name":"Cylinder.003",
			"scale":[
				1,
				2.20058274269104,
				1
			],
			"translation":[
				-28,
				11,
				-41
			]
		},
		{
			"extras":{
				"layers":"obstacles"
			},
			"mesh":5,
			"name":"Cylinder.004",
			"scale":[
				1,
				2.20058274269104,
				1
			],
			"translation":[
				36,
				11,
				26
			]
		},
		{
			"extras":{
				"layers":"obstacles"
			},
			"mesh":5,
			"name":"Cylinder.005",
			"scale":[
				1,
				2.20058274269104,
				1
			],
			"translation":[
				-28,
				11,
				-9
			]
		},
		{
			"extras":{
				"layers":"ground"
			},
			"mesh":2,
			"name":"Ground.003"
		},
		{
			"extras":{
				"layers":"triggers",
				"collider":"transform"
			},
			"name":"Trigger.002",
			"scale":[
				50,
				20,
				5
			],
			"translation":[
				0,
				20,
				0
			]
		},
		{
			"children":[
				32,
				33,
				34,
				35,
				36,
				37,
				38,
				39
			],
			"name":"Scene.003"
		},
		{
			"children":[
				40
			],
			"name":"tile_cylinders",
			"translation":[
				-100,
				0,
				100
			]
		},
		{
			"extras":{
				"layers":"ground"
			},
			"mesh":2,
			"name":"Ground.004"
		},
		{
			"extras":{
				"layers":"obstacles"
			},
			"mesh":6,
			"name":"Icosphere",
			"scale":[
				0.25,
				0.25,
				0.25
			],
			"translation":[
				0,
				11,
				-12
			]
		},
		{
			"mesh":6,
			"name":"Icosphere.001",
			"scale":[
				0.14999961853027344,
				0.15000000596046448,
				0.15000000596046448
			],
			"translation":[
				0,
				30,
				-12
			]
		},
		{
			"extras":{
				"layers":"triggers",
				"collider":"transform"
			},
			"name":"Trigger.003",
			"scale":[
				50,
				20,
				5
			],
			"translation":[
				0,
				20,
				0
			]
		},
		{
			"children":[
				42,
				43,
				44,
				45
			],
			"name":"Scene.004"
		},
		{
			"children":[
				46
			],
			"name":"tile_spheres",
			"translation":[
				0,
				0,
				100
			]
		},
		{
			"extras":{
				"layers":"ground"
			},
			"mesh":2,
			"name":"Ground.005"
		},
		{
			"extras":{
				"layers":"obstacles"
			},
			"mesh":7,
			"name":"Torus",
			"rotation":[
				0.70710688829422,
				0,
				0,
				0.7071066498756409
			],
			"scale":[
				0.19999998807907104,
				0.20000001788139343,
				0.20000001788139343
			],
			"translation":[
				16,
				18,
				23
			]
		},
		{
			"extras":{
				"layers":"obstacles"
			},
			"mesh":7,
			"name":"Torus.001",
			"rotation":[
				0.70710688829422,
				0,
				0,
				0.7071066498756409
			],
			"scale":[
				0.19999998807907104,
				0.20000001788139343,
				0.20000001788139343
			],
			"translation":[
				-27,
				18,
				-28
			]
		},
		{
			"extras":{
				"layers":"triggers",
				"collider":"transform"
			},
			"name":"Trigger.004",
			"scale":[
				50,
				20,
				5
			],
			"translation":[
				0,
				20,
				0
			]
		},
		{
			"children":[
				48,
				49,
				50,
				51
			],
			"name":"Scene.005"
		},
		{
			"children":[
				52
			],
			"name":"tile_torus",
			"translation":[
				100,
				0,
				100
			]
		}
	],
	"materials":[
		{
			"doubleSided":true,
			"name":"Red",
			"pbrMetallicRoughness":{
				"baseColorFactor":[
					1,
					0.012761403806507587,
					0.015027336776256561,
					1
				],
				"metallicFactor":0,
				"roughnessFactor":0.5
			}
		},
		{
			"doubleSided":true,
			"name":"ground",
			"pbrMetallicRoughness":{
				"baseColorFactor":[
					0.800000011920929,
					0.800000011920929,
					0.800000011920929,
					1
				],
				"metallicFactor":0,
				"roughnessFactor":0.5
			}
		},
		{
			"doubleSided":true,
			"name":"Yellow",
			"pbrMetallicRoughness":{
				"baseColorFactor":[
					0.8000000715255737,
					0.7304497957229614,
					0,
					1
				],
				"metallicFactor":0,
				"roughnessFactor":0.5
			}
		},
		{
			"doubleSided":true,
			"name":"brown",
			"pbrMetallicRoughness":{
				"baseColorFactor":[
					0.22025740146636963,
					0.08897610753774643,
					0.036410100758075714,
					1
				],
				"metallicFactor":0,
				"roughnessFactor":0.5
			}
		},
		{
			"doubleSided":true,
			"name":"Material.002",
			"pbrMetallicRoughness":{
				"baseColorFactor":[
					0.0028740931302309036,
					0.12371012568473816,
					0.005068161524832249,
					1
				],
				"metallicFactor":0,
				"roughnessFactor":0.5
			}
		},
		{
			"doubleSided":true,
			"name":"blue",
			"pbrMetallicRoughness":{
				"baseColorFactor":[
					0.034126732498407364,
					0.2838079333305359,
					0.8000000715255737,
					1
				],
				"metallicFactor":0,
				"roughnessFactor":0.5
			}
		},
		{
			"doubleSided":true,
			"name":"pink",
			"pbrMetallicRoughness":{
				"baseColorFactor":[
					0.8000000715255737,
					0.17807233333587646,
					0.5154508948326111,
					1
				],
				"metallicFactor":0,
				"roughnessFactor":0.5
			}
		},
		{
			"doubleSided":true,
			"name":"Material.003",
			"pbrMetallicRoughness":{
				"baseColorFactor":[
					0.07165997475385666,
					0,
					0.15232503414154053,
					1
				],
				"metallicFactor":0,
				"roughnessFactor":0.5
			}
		}
	],
	"meshes":[
		{
			"name":"Arch Pillar",
			"primitives":[
				{
					"attributes":{
						"POSITION":0,
						"NORMAL":1,
						"TEXCOORD_0":2
					},
					"indices":3,
					"material":0
				}
			]
		},
		{
			"name":"Arch Top",
			"primitives":[
				{
					"attributes":{
						"POSITION":4,
						"NORMAL":5,
						"TEXCOORD_0":6
					},
					"indices":7,
					"material":0
				}
			]
		},
		{
			"name":"ground",
			"primitives":[
				{
					"attributes":{
						"POSITION":8,
						"NORMAL":9,
						"TEXCOORD_0":10
					},
					"indices":11,
					"material":1
				}
			]
		},
		{
			"extras":{
				"layers":"obstacles"
			},
			"name":"Cube Stack",
			"primitives":[
				{
					"attributes":{
						"POSITION":12,
						"NORMAL":13,
						"TEXCOORD_0":14
					},
					"indices":15,
					"material":2
				}
			]
		},
		{
			"name":"Tree",
			"primitives":[
				{
					"attributes":{
						"POSITION":16,
						"NORMAL":17,
						"TEXCOORD_0":18
					},
					"indices":3,
					"material":3
				},
				{
					"attributes":{
						"POSITION":19,
						"NORMAL":20,
						"TEXCOORD_0":21
					},
					"indices":22,
					"material":4
				}
			]
		},
		{
			"name":"Cylinder",
			"primitives":[
				{
					"attributes":{
						"POSITION":23,
						"NORMAL":24,
						"TEXCOORD_0":25
					},
					"indices":26,
					"material":5
				}
			]
		},
		{
			"extras":{
				"layers":"obstacles"
			},
			"name":"sphere",
			"primitives":[
				{
					"attributes":{
						"POSITION":27,
						"NORMAL":28,
						"TEXCOORD_0":29
					},
					"indices":30,
					"material":6
				}
			]
		},
		{
			"extras":{
				"layers":"obstacles"
			},
			"name":"Torus",
			"primitives":[
				{
					"attributes":{
						"POSITION":31,
						"NORMAL":32,
						"TEXCOORD_0":33
					},
					"indices":34,
					"material":7
				}
			]
		}
	],
	"accessors":[
		{
			"bufferView":0,
			"componentType":5126,
			"count":16,
			"max":[
				1,
				1,
				1
			],
			"min":[
				-1,
				-1,
				-1
			],
			"type":"VEC3"
		},
		{
			"bufferView":1,
			"componentType":5126,
			"count":16,
			"type":"VEC3"
		},
		{
			"bufferView":2,
			"componentType":5126,
			"count":16,
			"type":"VEC2"
		},
		{
			"bufferView":3,
			"componentType":5123,
			"count":24,
			"type":"SCALAR"
		},
		{
			"bufferView":4,
			"componentType":5126,
			"count":20,
			"max":[
				1,
				1.600000023841858,
				1
			],
			"min":[
				-1.0000001192092896,
				-1,
				-1
			],
			"type":"VEC3"
		},
		{
			"bufferView":5,
			"componentType":5126,
			"count":20,
			"type":"VEC3"
		},
		{
			"bufferView":6,
			"componentType":5126,
			"count":20,
			"type":"VEC2"
		},
		{
			"bufferView":7,
			"componentType":5123,
			"count":30,
			"type":"SCALAR"
		},
		{
			"bufferView":8,
			"componentType":5126,
			"count":4,
			"max":[
				50,
				0,
				50
			],
			"min":[
				-50,
				0,
				-50
			],
			"type":"VEC3"
		},
		{
			"bufferView":9,
			"componentType":5126,
			"count":4,
			"type":"VEC3"
		},
		{
			"bufferView":10,
			"componentType":5126,
			"count":4,
			"type":"VEC2"
		},
		{
			"bufferView":11,
			"componentType":5123,
			"count":6,
			"type":"SCALAR"
		},
		{
			"bufferView":12,
			"componentType":5126,
			"count":64,
			"max":[
				10,
				5,
				5
			],
			"min":[
				-5,
				-25,
				-5
			],
			"type":"VEC3"
		},
		{
			"bufferView":13,
			"componentType":5126,
			"count":64,
			"type":"VEC3"
		},
		{
			"bufferView":14,
			"componentType":5126,
			"count":64,
			"type":"VEC2"
		},
		{
			"bufferView":15,
			"componentType":5123,
			"count":96,
			"type":"SCALAR"
		},
		{
			"bufferView":16,
			"componentType":5126,
			"count":16,
			"max":[
				3.5,
				10,
				3.5
			],
			"min":[
				-3.5,
				-10,
				-3.5
			],
			"type":"VEC3"
		},
		{
			"bufferView":17,
			"componentType":5126,
			"count":16,
			"type":"VEC3"
		},
		{
			"bufferView":18,
			"componentType":5126,
			"count":16,
			"type":"VEC2"
		},
		{
			"bufferView":19,
			"componentType":5126,
			"count":48,
			"max":[
				9.89538288116455,
				30.017303466796875,
				9.895384788513184
			],
			"min":[
				-9.895386695861816,
				4.104616165161133,
				-9.895384788513184
			],
			"type":"VEC3"
		},
		{
			"bufferView":20,
			"componentType":5126,
			"count":48,
			"type":"VEC3"
		},
		{
			"bufferView":21,
			"componentType":5126,
			"count":48,
			"type":"VEC2"
		},
		{
			"bufferView":22,
			"componentType":5123,
			"count":54,
			"type":"SCALAR"
		},
		{
			"bufferView":23,
			"componentType":5126,
			"count":32,
			"max":[
				3,
				5,
				3
			],
			"min":[
				-3,
				-5,
				-3
			],
			"type":"VEC3"
		},
		{
			"bufferView":24,
			"componentType":5126,
			"count":32,
			"type":"VEC3"
		},
		{
			"bufferView":25,
			"componentType":5126,
			"count":32,
			"type":"VEC2"
		},
		{
			"bufferView":26,
			"componentType":5123,
			"count":48,
			"type":"SCALAR"
		},
		{
			"bufferView":27,
			"componentType":5126,
			"count":240,
			"max":[
				57.0634765625,
				60,
				60
			],
			"min":[
				-57.0634765625,
				-60,
				-60
			],
			"type":"VEC3"
		},
		{
			"bufferView":28,
			"componentType":5126,
			"count":240,
			"type":"VEC3"
		},
		{
			"bufferView":29,
			"componentType":5126,
			"count":240,
			"type":"VEC2"
		},
		{
			"bufferView":30,
			"componentType":5123,
			"count":240,
			"type":"SCALAR"
		},
		{
			"bufferView":31,
			"componentType":5126,
			"count":140,
			"max":[
				111.5,
				22.430057525634766,
				96.56184387207031
			],
			"min":[
				-111.5,
				-22.430057525634766,
				-96.56184387207031
			],
			"type":"VEC3"
		},
		{
			"bufferView":32,
			"componentType":5126,
			"count":140,
			"type":"VEC3"
		},
		{
			"bufferView":33,
			"componentType":5126,
			"count":140,
			"type":"VEC2"
		},
		{
			"bufferView":34,
			"componentType":5123,
			"count":216,
			"type":"SCALAR"
		}
	],
	"bufferViews":[
		{
			"buffer":0,
			"byteLength":192,
			"byteOffset":0,
			"target":34962
		},
		{
			"buffer":0,
			"byteLength":192,
			"byteOffset":192,
			"target":34962
		},
		{
			"buffer":0,
			"byteLength":128,
			"byteOffset":384,
			"target":34962
		},
		{
			"buffer":0,
			"byteLength":48,
			"byteOffset":512,
			"target":34963
		},
		{
			"buffer":0,
			"byteLength":240,
			"byteOffset":560,
			"target":34962
		},
		{
			"buffer":0,
			"byteLength":240,
			"byteOffset":800,
			"target":34962
		},
		{
			"buffer":0,
			"byteLength":160,
			"byteOffset":1040,
			"target":34962
		},
		{
			"buffer":0,
			"byteLength":60,
			"byteOffset":1200,
			"target":34963
		},
		{
			"buffer":0,
			"byteLength":48,
			"byteOffset":1260,
			"target":34962
		},
		{
			"buffer":0,
			"byteLength":48,
			"byteOffset":1308,
			"target":34962
		},
		{
			"buffer":0,
			"byteLength":32,
			"byteOffset":1356,
			"target":34962
		},
		{
			"buffer":0,
			"byteLength":12,
			"byteOffset":1388,
			"target":34963
		},
		{
			"buffer":0,
			"byteLength":768,
			"byteOffset":1400,
			"target":34962
		},
		{
			"buffer":0,
			"byteLength":768,
			"byteOffset":2168,
			"target":34962
		},
		{
			"buffer":0,
			"byteLength":512,
			"byteOffset":2936,
			"target":34962
		},
		{
			"buffer":0,
			"byteLength":192,
			"byteOffset":3448,
			"target":34963
		},
		{
			"buffer":0,
			"byteLength":192,
			"byteOffset":3640,
			"target":34962
		},
		{
			"buffer":0,
			"byteLength":192,
			"byteOffset":3832,
			"target":34962
		},
		{
			"buffer":0,
			"byteLength":128,
			"byteOffset":4024,
			"target":34962
		},
		{
			"buffer":0,
			"byteLength":576,
			"byteOffset":4152,
			"target":34962
		},
		{
			"buffer":0,
			"byteLength":576,
			"byteOffset":4728,
			"target":34962
		},
		{
			"buffer":0,
			"byteLength":384,
			"byteOffset":5304,
			"target":34962
		},
		{
			"buffer":0,
			"byteLength":108,
			"byteOffset":5688,
			"target":34963
		},
		{
			"buffer":0,
			"byteLength":384,
			"byteOffset":5796,
			"target":34962
		},
		{
			"buffer":0,
			"byteLength":384,
			"byteOffset":6180,
			"target":34962
		},
		{
			"buffer":0,
			"byteLength":256,
			"byteOffset":6564,
			"target":34962
		},
		{
			"buffer":0,
			"byteLength":96,
			"byteOffset":6820,
			"target":34963
		},
		{
			"buffer":0,
			"byteLength":2880,
			"byteOffset":6916,
			"target":34962
		},
		{
			"buffer":0,
			"byteLength":2880,
			"byteOffset":9796,
			"target":34962
		},
		{
			"buffer":0,
			"byteLength":1920,
			"byteOffset":12676,
			"target":34962
		},
		{
			"buffer":0,
			"byteLength":480,
			"byteOffset":14596,
			"target":34963
		},
		{
			"buffer":0,
			"byteLength":1680,
			"byteOffset":15076,
			"target":34962
		},
		{
			"buffer":0,
			"byteLength":1680,
			"byteOffset":16756,
			"target":34962
		},
		{
			"buffer":0,
			"byteLength":1120,
			"byteOffset":18436,
			"target":34962
		},
		{
			"buffer":0,
			"byteLength":432,
			"byteOffset":19556,
			"target":34963
		}
	],
	"buffers":[
		{
			"byteLength":19988,
			"uri":"level_tiles.bin"
		}
	]
}
