{
	"asset":{
		"generator":"Khronos glTF Blender I/O v4.0.44",
		"version":"2.0"
	},
	"scene":0,
	"scenes":[
		{
			"name":"Scene",
			"nodes":[
				15
			]
		}
	],
	"nodes":[
		{
			"mesh":0,
			"name":"Ramp"
		},
		{
			"mesh":1,
			"name":"Wall"
		},
		{
			"children":[
				0,
				1
			],
			"name":"Colliders",
			"translation":[
				0,
				0,
				60
			]
		},
		{
			"extras":{
				"layers":"ground"
			},
			"mesh":2,
			"name":"Bridge",
			"scale":[
				3,
				1,
				5
			],
			"translation":[
				-8,
				5,
				2
			]
		},
		{
			"extras":{
				"layers":"ground"
			},
			"mesh":3,
			"name":"Ground Plane"
		},
		{
			"mesh":4,
			"name":"Pillar 1",
			"scale":[
				0.07500000298023224,
				1,
				0.07500000298023224
			],
			"translation":[
				2.5,
				1,
				-6
			]
		},
		{
			"mesh":4,
			"name":"Pillar 2",
			"scale":[
				0.07500000298023224,
				1,
				0.07500000298023224
			],
			"translation":[
				2.5,
				1,
				5
			]
		},
		{
			"mesh":4,
			"name":"Pillar 3",
			"scale":[
				0.07500000298023224,
				1,
				0.07500000298023224
			],
			"translation":[
				11.5,
				1,
				5
			]
		},
		{
			"mesh":4,
			"name":"Pillar 4",
			"scale":[
				0.07500000298023224,
				1,
				0.07500000298023224
			],
			"translation":[
				11.5,
				1,
				-6
			]
		},
		{
			"extras":{
				"layers":"ground"
			},
			"mesh":5,
			"name":"Platform Base",
			"translation":[
				0,
				0,
				-47
			]
		},
		{
			"extras":{
				"layers":"wall",
				"collider":"Wall"
			},
			"mesh":6,
			"name":"Platform Wall",
			"translation":[
				0,
				0,
				-47
			]
		},
		{
			"extras":{
				"type":"start"
			},
			"name":"Player Start",
			"translation":[
				0,
				4,
				18
			]
		},
		{
			"extras":{
				"layers":"ground",
				"collider":"Ramp"
			},
			"mesh":7,
			"name":"Ramp 1",
			"translation":[
				-8,
				0,
				-6
			]
		},
		{
			"extras":{
				"layers":"ground",
				"collider":"Ramp"
			},
			"mesh":7,
			"name":"Ramp 2",
			"rotation":[
				0,
				-1,
				0,
				4.371138828673793e-08
			],
			"translation":[
				-8,
				0,
				10
			]
		},
		{
			"children":[
				3,
				4,
				5,
				6,
				7,
				8,
				9,
				10,
				11,
				12,
				13
			],
			"name":"Scene"
		},
		{
			"children":[
				2,
				14
			],
			"extras":{
				"extraMeshes":"1",
				"extraNodes":"1",
				"extraColliders":"1",
				"extraMeshInstances":"1"
			},
			"name":"Playground"
		}
	],
	"materials":[
		{
			"doubleSided":true,
			"name":"Collider",
			"pbrMetallicRoughness":{
				"baseColorFactor":[
					0.800000011920929,
					0.800000011920929,
					0.800000011920929,
					1
				],
				"metallicFactor":0,
				"roughnessFactor":0.4000000059604645
			}
		},
		{
			"doubleSided":true,
			"name":"Sidewalk",
			"pbrMetallicRoughness":{
				"baseColorTexture":{
					"index":0
				},
				"metallicFactor":0,
				"roughnessFactor":0.5
			}
		},
		{
			"doubleSided":true,
			"name":"Grass",
			"pbrMetallicRoughness":{
				"baseColorTexture":{
					"index":1
				},
				"metallicFactor":0,
				"roughnessFactor":0.4000000059604645
			}
		},
		{
			"doubleSided":true,
			"name":"Stone",
			"pbrMetallicRoughness":{
				"baseColorTexture":{
					"index":2
				},
				"metallicFactor":0,
				"roughnessFactor":0.5
			}
		}
	],
	"meshes":[
		{
			"name":"Cube.006",
			"primitives":[
				{
					"attributes":{
						"POSITION":0,
						"NORMAL":1,
						"TEXCOORD_0":2
					},
					"indices":3,
					"material":0
				}
			]
		},
		{
			"name":"Cylinder.004",
			"primitives":[
				{
					"attributes":{
						"POSITION":4,
						"NORMAL":5,
						"TEXCOORD_0":6
					},
					"indices":7,
					"material":0
				}
			]
		},
		{
			"name":"Cube.003",
			"primitives":[
				{
					"attributes":{
						"COLOR_0":8,
						"POSITION":9,
						"NORMAL":10,
						"TEXCOORD_0":11
					},
					"indices":3,
					"material":1
				}
			]
		},
		{
			"name":"Cube.001",
			"primitives":[
				{
					"attributes":{
						"COLOR_0":12,
						"POSITION":13,
						"NORMAL":14,
						"TEXCOORD_0":15
					},
					"indices":16,
					"material":2
				}
			]
		},
		{
			"name":"Pillar",
			"primitives":[
				{
					"attributes":{
						"COLOR_0":17,
						"POSITION":18,
						"NORMAL":19,
						"TEXCOORD_0":20
					},
					"indices":21,
					"material":3
				}
			]
		},
		{
			"name":"Cylinder.003",
			"primitives":[
				{
					"attributes":{
						"COLOR_0":22,
						"POSITION":23,
						"NORMAL":24,
						"TEXCOORD_0":25
					},
					"indices":26,
					"material":3
				}
			]
		},
		{
			"name":"Cylinder.006",
			"primitives":[
				{
					"attributes":{
						"COLOR_0":27,
						"POSITION":28,
						"NORMAL":29,
						"TEXCOORD_0":30
					},
					"indices":31,
					"material":3
				}
			]
		},
		{
			"name":"Ramp",
			"primitives":[
				{
					"attributes":{
						"COLOR_0":32,
						"POSITION":33,
						"NORMAL":34,
						"TEXCOORD_0":35
					},
					"indices":3,
					"material":1
				}
			]
		}
	],
	"textures":[
		{
			"sampler":0,
			"source":0
		},
		{
			"sampler":0,
			"source":1
		},
		{
			"sampler":0,
			"source":2
		}
	],
	"images":[
		{
			"mimeType":"image/png",
			"name":"sidewalk",
			"uri":"sidewalk.png"
		},
		{
			"mimeType":"image/png",
			"name":"grass",
			"uri":"grass.png"
		},
		{
			"mimeType":"image/png",
			"name":"stone",
			"uri":"stone.png"
		}
	],
	"accessors":[
		{
			"bufferView":0,
			"componentType":5126,
			"count":16,
			"max":[
				3,
				6,
				3
			],
			"min":[
				-3,
				1,
				-3.0000007152557373
			],
			"type":"VEC3"
		},
		{
			"bufferView":1,
			"componentType":5126,
			"count":16,
			"type":"VEC3"
		},
		{
			"bufferView":2,
			"componentType":5126,
			"count":16,
			"type":"VEC2"
		},
		{
			"bufferView":3,
			"componentType":5123,
			"count":24,
			"type":"SCALAR"
		},
		{
			"bufferView":4,
			"componentType":5126,
			"count":32,
			"max":[
				17.378936767578125,
				8,
				18.019376754760742
			],
			"min":[
				-17.378936767578125,
				1,
				-17.825870513916016
			],
			"type":"VEC3"
		},
		{
			"bufferView":5,
			"componentType":5126,
			"count":32,
			"type":"VEC3"
		},
		{
			"bufferView":6,
			"componentType":5126,
			"count":32,
			"type":"VEC2"
		},
		{
			"bufferView":7,
			"componentType":5123,
			"count":48,
			"type":"SCALAR"
		},
		{
			"bufferView":8,
			"componentType":5126,
			"count":16,
			"type":"VEC4"
		},
		{
			"bufferView":9,
			"componentType":5126,
			"count":16,
			"max":[
				1,
				1,
				1
			],
			"min":[
				-1,
				0,
				-1
			],
			"type":"VEC3"
		},
		{
			"bufferView":10,
			"componentType":5126,
			"count":16,
			"type":"VEC3"
		},
		{
			"bufferView":11,
			"componentType":5126,
			"count":16,
			"type":"VEC2"
		},
		{
			"bufferView":12,
			"componentType":5126,
			"count":20,
			"type":"VEC4"
		},
		{
			"bufferView":13,
			"componentType":5126,
			"count":20,
			"max":[
				20,
				1,
				20
			],
			"min":[
				-20,
				0,
				-20
			],
			"type":"VEC3"
		},
		{
			"bufferView":14,
			"componentType":5126,
			"count":20,
			"type":"VEC3"
		},
		{
			"bufferView":15,
			"componentType":5126,
			"count":20,
			"type":"VEC2"
		},
		{
			"bufferView":16,
			"componentType":5123,
			"count":30,
			"type":"SCALAR"
		},
		{
			"bufferView":17,
			"componentType":5126,
			"count":46,
			"type":"VEC4"
		},
		{
			"bufferView":18,
			"componentType":5126,
			"count":46,
			"max":[
				19.498558044433594,
				6,
				18.019376754760742
			],
			"min":[
				-19.498558044433594,
				0,
				-20
			],
			"type":"VEC3"
		},
		{
			"bufferView":19,
			"componentType":5126,
			"count":46,
			"type":"VEC3"
		},
		{
			"bufferView":20,
			"componentType":5126,
			"count":46,
			"type":"VEC2"
		},
		{
			"bufferView":21,
			"componentType":5123,
			"count":63,
			"type":"SCALAR"
		},
		{
			"bufferView":22,
			"componentType":5126,
			"count":19,
			"type":"VEC4"
		},
		{
			"bufferView":23,
			"componentType":5126,
			"count":19,
			"max":[
				19.498558044433594,
				1,
				18.019376754760742
			],
			"min":[
				-19.498558044433594,
				-1,
				-20
			],
			"type":"VEC3"
		},
		{
			"bufferView":24,
			"componentType":5126,
			"count":19,
			"type":"VEC3"
		},
		{
			"bufferView":25,
			"componentType":5126,
			"count":19,
			"type":"VEC2"
		},
		{
			"bufferView":26,
			"componentType":5123,
			"count":33,
			"type":"SCALAR"
		},
		{
			"bufferView":27,
			"componentType":5126,
			"count":60,
			"type":"VEC4"
		},
		{
			"bufferView":28,
			"componentType":5126,
			"count":60,
			"max":[
				19.498558044433594,
				8,
				18.019376754760742
			],
			"min":[
				-19.498558044433594,
				1,
				-20
			],
			"type":"VEC3"
		},
		{
			"bufferView":29,
			"componentType":5126,
			"count":60,
			"type":"VEC3"
		},
		{
			"bufferView":30,
			"componentType":5126,
			"count":60,
			"type":"VEC2"
		},
		{
			"bufferView":31,
			"componentType":5123,
			"count":96,
			"type":"SCALAR"
		},
		{
			"bufferView":32,
			"componentType":5126,
			"count":16,
			"type":"VEC4"
		},
		{
			"bufferView":33,
			"componentType":5126,
			"count":16,
			"max":[
				3,
				6,
				3
			],
			"min":[
				-3,
				1,
				-3.0000007152557373
			],
			"type":"VEC3"
		},
		{
			"bufferView":34,
			"componentType":5126,
			"count":16,
			"type":"VEC3"
		},
		{
			"bufferView":35,
			"componentType":5126,
			"count":16,
			"type":"VEC2"
		}
	],
	"bufferViews":[
		{
			"buffer":0,
			"byteLength":192,
			"byteOffset":0,
			"target":34962
		},
		{
			"buffer":0,
			"byteLength":192,
			"byteOffset":192,
			"target":34962
		},
		{
			"buffer":0,
			"byteLength":128,
			"byteOffset":384,
			"target":34962
		},
		{
			"buffer":0,
			"byteLength":48,
			"byteOffset":512,
			"target":34963
		},
		{
			"buffer":0,
			"byteLength":384,
			"byteOffset":560,
			"target":34962
		},
		{
			"buffer":0,
			"byteLength":384,
			"byteOffset":944,
			"target":34962
		},
		{
			"buffer":0,
			"byteLength":256,
			"byteOffset":1328,
			"target":34962
		},
		{
			"buffer":0,
			"byteLength":96,
			"byteOffset":1584,
			"target":34963
		},
		{
			"buffer":0,
			"byteLength":256,
			"byteOffset":1680,
			"target":34962
		},
		{
			"buffer":0,
			"byteLength":192,
			"byteOffset":1936,
			"target":34962
		},
		{
			"buffer":0,
			"byteLength":192,
			"byteOffset":2128,
			"target":34962
		},
		{
			"buffer":0,
			"byteLength":128,
			"byteOffset":2320,
			"target":34962
		},
		{
			"buffer":0,
			"byteLength":320,
			"byteOffset":2448,
			"target":34962
		},
		{
			"buffer":0,
			"byteLength":240,
			"byteOffset":2768,
			"target":34962
		},
		{
			"buffer":0,
			"byteLength":240,
			"byteOffset":3008,
			"target":34962
		},
		{
			"buffer":0,
			"byteLength":160,
			"byteOffset":3248,
			"target":34962
		},
		{
			"buffer":0,
			"byteLength":60,
			"byteOffset":3408,
			"target":34963
		},
		{
			"buffer":0,
			"byteLength":736,
			"byteOffset":3468,
			"target":34962
		},
		{
			"buffer":0,
			"byteLength":552,
			"byteOffset":4204,
			"target":34962
		},
		{
			"buffer":0,
			"byteLength":552,
			"byteOffset":4756,
			"target":34962
		},
		{
			"buffer":0,
			"byteLength":368,
			"byteOffset":5308,
			"target":34962
		},
		{
			"buffer":0,
			"byteLength":126,
			"byteOffset":5676,
			"target":34963
		},
		{
			"buffer":0,
			"byteLength":304,
			"byteOffset":5804,
			"target":34962
		},
		{
			"buffer":0,
			"byteLength":228,
			"byteOffset":6108,
			"target":34962
		},
		{
			"buffer":0,
			"byteLength":228,
			"byteOffset":6336,
			"target":34962
		},
		{
			"buffer":0,
			"byteLength":152,
			"byteOffset":6564,
			"target":34962
		},
		{
			"buffer":0,
			"byteLength":66,
			"byteOffset":6716,
			"target":34963
		},
		{
			"buffer":0,
			"byteLength":960,
			"byteOffset":6784,
			"target":34962
		},
		{
			"buffer":0,
			"byteLength":720,
			"byteOffset":7744,
			"target":34962
		},
		{
			"buffer":0,
			"byteLength":720,
			"byteOffset":8464,
			"target":34962
		},
		{
			"buffer":0,
			"byteLength":480,
			"byteOffset":9184,
			"target":34962
		},
		{
			"buffer":0,
			"byteLength":192,
			"byteOffset":9664,
			"target":34963
		},
		{
			"buffer":0,
			"byteLength":256,
			"byteOffset":9856,
			"target":34962
		},
		{
			"buffer":0,
			"byteLength":192,
			"byteOffset":10112,
			"target":34962
		},
		{
			"buffer":0,
			"byteLength":192,
			"byteOffset":10304,
			"target":34962
		},
		{
			"buffer":0,
			"byteLength":128,
			"byteOffset":10496,
			"target":34962
		}
	],
	"samplers":[
		{
			"magFilter":9729,
			"minFilter":9987
		}
	],
	"buffers":[
		{
			"byteLength":10624,
			"uri":"simple_scene.bin"
		}
	]
}
