{
    "asset" : {
        "generator" : "Khronos glTF Blender I/O v3.2.40",
        "version" : "2.0"
    },
    "scene" : 0,
    "scenes" : [
        {
            "name" : "Scene",
            "nodes" : [
                0
            ]
        }
    ],
    "nodes" : [
        {
            "mesh" : 0,
            "name" : "Sword"
        }
    ],
    "materials" : [
        {
            "doubleSided" : true,
            "name" : "Sword_Hilt",
            "pbrMetallicRoughness" : {
                "baseColorFactor" : [
                    0.2140343189239502,
                    0.08271880447864532,
                    0.007106413599103689,
                    1
                ],
                "metallicFactor" : 0,
                "roughnessFactor" : 0.5
            }
        },
        {
            "doubleSided" : true,
            "name" : "Sword_Metal",
            "pbrMetallicRoughness" : {
                "baseColorFactor" : [
                    0.21403418481349945,
                    0.21403418481349945,
                    0.21403418481349945,
                    1
                ],
                "metallicFactor" : 0,
                "roughnessFactor" : 0.5
            }
        }
    ],
    "meshes" : [
        {
            "name" : "Cube",
            "primitives" : [
                {
                    "attributes" : {
                        "POSITION" : 0,
                        "NORMAL" : 1,
                        "TEXCOORD_0" : 2
                    },
                    "indices" : 3,
                    "material" : 0
                },
                {
                    "attributes" : {
                        "POSITION" : 4,
                        "NORMAL" : 5,
                        "TEXCOORD_0" : 6
                    },
                    "indices" : 7,
                    "material" : 1
                }
            ]
        }
    ],
    "accessors" : [
        {
            "bufferView" : 0,
            "componentType" : 5126,
            "count" : 28,
            "max" : [
                15,
                15,
                5
            ],
            "min" : [
                -15,
                -15,
                -5
            ],
            "type" : "VEC3"
        },
        {
            "bufferView" : 1,
            "componentType" : 5126,
            "count" : 28,
            "type" : "VEC3"
        },
        {
            "bufferView" : 2,
            "componentType" : 5126,
            "count" : 28,
            "type" : "VEC2"
        },
        {
            "bufferView" : 3,
            "componentType" : 5123,
            "count" : 42,
            "type" : "SCALAR"
        },
        {
            "bufferView" : 4,
            "componentType" : 5126,
            "count" : 56,
            "max" : [
                15,
                96.99999237060547,
                5
            ],
            "min" : [
                -15,
                15,
                -5
            ],
            "type" : "VEC3"
        },
        {
            "bufferView" : 5,
            "componentType" : 5126,
            "count" : 56,
            "type" : "VEC3"
        },
        {
            "bufferView" : 6,
            "componentType" : 5126,
            "count" : 56,
            "type" : "VEC2"
        },
        {
            "bufferView" : 7,
            "componentType" : 5123,
            "count" : 96,
            "type" : "SCALAR"
        }
    ],
    "bufferViews" : [
        {
            "buffer" : 0,
            "byteLength" : 336,
            "byteOffset" : 0
        },
        {
            "buffer" : 0,
            "byteLength" : 336,
            "byteOffset" : 336
        },
        {
            "buffer" : 0,
            "byteLength" : 224,
            "byteOffset" : 672
        },
        {
            "buffer" : 0,
            "byteLength" : 84,
            "byteOffset" : 896
        },
        {
            "buffer" : 0,
            "byteLength" : 672,
            "byteOffset" : 980
        },
        {
            "buffer" : 0,
            "byteLength" : 672,
            "byteOffset" : 1652
        },
        {
            "buffer" : 0,
            "byteLength" : 448,
            "byteOffset" : 2324
        },
        {
            "buffer" : 0,
            "byteLength" : 192,
            "byteOffset" : 2772
        }
    ],
    "buffers" : [
        {
            "byteLength" : 2964,
            "uri" : "sword.bin"
        }
    ]
}
