{
	"asset":{
		"generator":"Khronos glTF Blender I/O v4.0.44",
		"version":"2.0"
	},
	"extensionsUsed":[
		"KHR_materials_specular",
		"KHR_materials_ior"
	],
	"scene":0,
	"scenes":[
		{
			"name":"Scene",
			"nodes":[
				4
			]
		}
	],
	"nodes":[
		{
			"camera":0,
			"name":"Camera",
			"rotation":[
				-0.2845984995365143,
				0,
				0,
				0.958646833896637
			],
			"translation":[
				0,
				22,
				27.999998092651367
			]
		},
		{
			"extras":{
				"collisionType":"dynamic",
				"layers":"player"
			},
			"mesh":0,
			"name":"Player",
			"translation":[
				0,
				11,
				0
			]
		},
		{
			"extras":{
				"layers":"world",
				"collisionType":"static"
			},
			"mesh":1,
			"name":"ground",
			"scale":[
				0.10000002384185791,
				0.10000002384185791,
				0.10000002384185791
			]
		},
		{
			"children":[
				0,
				1,
				2
			],
			"name":"Scene.001"
		},
		{
			"children":[
				3
			],
			"extras":{
				"extraNodes":"5",
				"extraMeshInstances":"5",
				"extraSkinnedMeshInstances":"1",
				"extraColliders":"1"
			},
			"name":"CollisionTest"
		}
	],
	"cameras":[
		{
			"name":"Camera.001",
			"perspective":{
				"aspectRatio":1.7777777777777777,
				"yfov":0.3995964825153351,
				"zfar":1000,
				"znear":0.10000000149011612
			},
			"type":"perspective"
		}
	],
	"materials":[
		{
			"doubleSided":true,
			"name":"Material.002",
			"pbrMetallicRoughness":{
				"baseColorFactor":[
					0.6350954174995422,
					0.45860010385513306,
					0.39619502425193787,
					1
				],
				"metallicFactor":0,
				"roughnessFactor":0.5
			}
		},
		{
			"doubleSided":true,
			"extensions":{
				"KHR_materials_specular":{
					"specularFactor":0
				},
				"KHR_materials_ior":{
					"ior":1
				}
			},
			"name":"Shape.009",
			"pbrMetallicRoughness":{
				"baseColorTexture":{
					"index":0
				},
				"metallicFactor":0
			}
		},
		{
			"doubleSided":true,
			"extensions":{
				"KHR_materials_specular":{
					"specularFactor":0
				},
				"KHR_materials_ior":{
					"ior":1
				}
			},
			"name":"Shape.010",
			"pbrMetallicRoughness":{
				"baseColorTexture":{
					"index":1
				},
				"metallicFactor":0
			}
		},
		{
			"doubleSided":true,
			"extensions":{
				"KHR_materials_specular":{
					"specularFactor":0
				},
				"KHR_materials_ior":{
					"ior":1
				}
			},
			"name":"Shape.011",
			"pbrMetallicRoughness":{
				"baseColorTexture":{
					"index":2
				},
				"metallicFactor":0
			}
		},
		{
			"doubleSided":true,
			"extensions":{
				"KHR_materials_specular":{
					"specularFactor":0
				},
				"KHR_materials_ior":{
					"ior":1
				}
			},
			"name":"Shape.012",
			"pbrMetallicRoughness":{
				"baseColorTexture":{
					"index":3
				},
				"metallicFactor":0
			}
		},
		{
			"doubleSided":true,
			"extensions":{
				"KHR_materials_specular":{
					"specularFactor":0
				},
				"KHR_materials_ior":{
					"ior":1
				}
			},
			"name":"Shape.013",
			"pbrMetallicRoughness":{
				"baseColorTexture":{
					"index":4
				},
				"metallicFactor":0
			}
		},
		{
			"doubleSided":true,
			"extensions":{
				"KHR_materials_specular":{
					"specularFactor":0
				},
				"KHR_materials_ior":{
					"ior":1
				}
			},
			"name":"Shape.014",
			"pbrMetallicRoughness":{
				"baseColorTexture":{
					"index":5
				},
				"metallicFactor":0
			}
		},
		{
			"doubleSided":true,
			"extensions":{
				"KHR_materials_specular":{
					"specularFactor":0
				},
				"KHR_materials_ior":{
					"ior":1
				}
			},
			"name":"Shape.022",
			"pbrMetallicRoughness":{
				"baseColorTexture":{
					"index":6
				},
				"metallicFactor":0
			}
		},
		{
			"doubleSided":true,
			"extensions":{
				"KHR_materials_specular":{
					"specularFactor":0
				},
				"KHR_materials_ior":{
					"ior":1
				}
			},
			"name":"Shape.023",
			"pbrMetallicRoughness":{
				"baseColorTexture":{
					"index":7
				},
				"metallicFactor":0
			}
		}
	],
	"meshes":[
		{
			"name":"Cube.001",
			"primitives":[
				{
					"attributes":{
						"POSITION":0,
						"NORMAL":1,
						"TEXCOORD_0":2
					},
					"indices":3,
					"material":0
				}
			]
		},
		{
			"name":"Shape_IndexedFaceSet.009",
			"primitives":[
				{
					"attributes":{
						"COLOR_0":4,
						"POSITION":5,
						"NORMAL":6,
						"TEXCOORD_0":7
					},
					"indices":8,
					"material":1
				},
				{
					"attributes":{
						"COLOR_0":9,
						"POSITION":10,
						"NORMAL":11,
						"TEXCOORD_0":12
					},
					"indices":13,
					"material":2
				},
				{
					"attributes":{
						"COLOR_0":14,
						"POSITION":15,
						"NORMAL":16,
						"TEXCOORD_0":17
					},
					"indices":18,
					"material":3
				},
				{
					"attributes":{
						"COLOR_0":19,
						"POSITION":20,
						"NORMAL":21,
						"TEXCOORD_0":22
					},
					"indices":23,
					"material":4
				},
				{
					"attributes":{
						"COLOR_0":24,
						"POSITION":25,
						"NORMAL":26,
						"TEXCOORD_0":27
					},
					"indices":28,
					"material":5
				},
				{
					"attributes":{
						"COLOR_0":29,
						"POSITION":30,
						"NORMAL":31,
						"TEXCOORD_0":32
					},
					"indices":33,
					"material":6
				},
				{
					"attributes":{
						"COLOR_0":34,
						"POSITION":35,
						"NORMAL":36,
						"TEXCOORD_0":37
					},
					"indices":18,
					"material":7
				},
				{
					"attributes":{
						"COLOR_0":38,
						"POSITION":39,
						"NORMAL":40,
						"TEXCOORD_0":41
					},
					"indices":18,
					"material":8
				}
			]
		}
	],
	"textures":[
		{
			"sampler":0,
			"source":0
		},
		{
			"sampler":0,
			"source":1
		},
		{
			"sampler":0,
			"source":2
		},
		{
			"sampler":0,
			"source":3
		},
		{
			"sampler":0,
			"source":4
		},
		{
			"sampler":0,
			"source":5
		},
		{
			"sampler":0,
			"source":6
		},
		{
			"sampler":0,
			"source":6
		}
	],
	"images":[
		{
			"mimeType":"image/png",
			"name":"12436720_c",
			"uri":"12436720_c.png"
		},
		{
			"mimeType":"image/png",
			"name":"6B2D96F_c",
			"uri":"6B2D96F_c.png"
		},
		{
			"mimeType":"image/png",
			"name":"359289F2_c",
			"uri":"359289F2_c.png"
		},
		{
			"mimeType":"image/png",
			"name":"10E99677_c",
			"uri":"10E99677_c.png"
		},
		{
			"mimeType":"image/png",
			"name":"3F485258_c",
			"uri":"3F485258_c.png"
		},
		{
			"mimeType":"image/png",
			"name":"C1DF883_c",
			"uri":"C1DF883_c.png"
		},
		{
			"mimeType":"image/png",
			"name":"1FAAE88D_c",
			"uri":"1FAAE88D_c.png"
		}
	],
	"accessors":[
		{
			"bufferView":0,
			"componentType":5126,
			"count":24,
			"max":[
				0.5,
				5,
				0.5
			],
			"min":[
				-0.5,
				0,
				-0.5
			],
			"type":"VEC3"
		},
		{
			"bufferView":1,
			"componentType":5126,
			"count":24,
			"type":"VEC3"
		},
		{
			"bufferView":2,
			"componentType":5126,
			"count":24,
			"type":"VEC2"
		},
		{
			"bufferView":3,
			"componentType":5123,
			"count":36,
			"type":"SCALAR"
		},
		{
			"bufferView":4,
			"componentType":5126,
			"count":75,
			"type":"VEC4"
		},
		{
			"bufferView":5,
			"componentType":5126,
			"count":75,
			"max":[
				171.42784118652344,
				25.41562271118164,
				210.21896362304688
			],
			"min":[
				-160.96255493164062,
				-2.9481053352355957,
				-648.2766723632812
			],
			"type":"VEC3"
		},
		{
			"bufferView":6,
			"componentType":5126,
			"count":75,
			"type":"VEC3"
		},
		{
			"bufferView":7,
			"componentType":5126,
			"count":75,
			"type":"VEC2"
		},
		{
			"bufferView":8,
			"componentType":5123,
			"count":75,
			"type":"SCALAR"
		},
		{
			"bufferView":9,
			"componentType":5126,
			"count":24,
			"type":"VEC4"
		},
		{
			"bufferView":10,
			"componentType":5126,
			"count":24,
			"max":[
				32.9167594909668,
				25.41562271118164,
				-45.98165512084961
			],
			"min":[
				-29.39851951599121,
				-2.6288366317749023,
				-465.513671875
			],
			"type":"VEC3"
		},
		{
			"bufferView":11,
			"componentType":5126,
			"count":24,
			"type":"VEC3"
		},
		{
			"bufferView":12,
			"componentType":5126,
			"count":24,
			"type":"VEC2"
		},
		{
			"bufferView":13,
			"componentType":5123,
			"count":24,
			"type":"SCALAR"
		},
		{
			"bufferView":14,
			"componentType":5126,
			"count":6,
			"type":"VEC4"
		},
		{
			"bufferView":15,
			"componentType":5126,
			"count":6,
			"max":[
				32.924476623535156,
				80.93438720703125,
				-465.5064392089844
			],
			"min":[
				-22.608129501342773,
				25.359251022338867,
				-648.1997680664062
			],
			"type":"VEC3"
		},
		{
			"bufferView":16,
			"componentType":5126,
			"count":6,
			"type":"VEC3"
		},
		{
			"bufferView":17,
			"componentType":5126,
			"count":6,
			"type":"VEC2"
		},
		{
			"bufferView":18,
			"componentType":5123,
			"count":6,
			"type":"SCALAR"
		},
		{
			"bufferView":19,
			"componentType":5126,
			"count":84,
			"type":"VEC4"
		},
		{
			"bufferView":20,
			"componentType":5126,
			"count":84,
			"max":[
				95.24895477294922,
				11.265413284301758,
				147.88677978515625
			],
			"min":[
				-91.705810546875,
				-2.7838730812072754,
				-45.9898567199707
			],
			"type":"VEC3"
		},
		{
			"bufferView":21,
			"componentType":5126,
			"count":84,
			"type":"VEC3"
		},
		{
			"bufferView":22,
			"componentType":5126,
			"count":84,
			"type":"VEC2"
		},
		{
			"bufferView":23,
			"componentType":5123,
			"count":84,
			"type":"SCALAR"
		},
		{
			"bufferView":24,
			"componentType":5126,
			"count":9,
			"type":"VEC4"
		},
		{
			"bufferView":25,
			"componentType":5126,
			"count":9,
			"max":[
				12.819313049316406,
				11.20201301574707,
				61.99462890625
			],
			"min":[
				-9.307021141052246,
				-44.103736877441406,
				39.8826789855957
			],
			"type":"VEC3"
		},
		{
			"bufferView":26,
			"componentType":5126,
			"count":9,
			"type":"VEC3"
		},
		{
			"bufferView":27,
			"componentType":5126,
			"count":9,
			"type":"VEC2"
		},
		{
			"bufferView":28,
			"componentType":5123,
			"count":9,
			"type":"SCALAR"
		},
		{
			"bufferView":29,
			"componentType":5126,
			"count":39,
			"type":"VEC4"
		},
		{
			"bufferView":30,
			"componentType":5126,
			"count":39,
			"max":[
				98.13472747802734,
				24.01870346069336,
				-279.12823486328125
			],
			"min":[
				37.5560417175293,
				9.480964660644531,
				-336.8892822265625
			],
			"type":"VEC3"
		},
		{
			"bufferView":31,
			"componentType":5126,
			"count":39,
			"type":"VEC3"
		},
		{
			"bufferView":32,
			"componentType":5126,
			"count":39,
			"type":"VEC2"
		},
		{
			"bufferView":33,
			"componentType":5123,
			"count":39,
			"type":"SCALAR"
		},
		{
			"bufferView":34,
			"componentType":5126,
			"count":6,
			"type":"VEC4"
		},
		{
			"bufferView":35,
			"componentType":5126,
			"count":6,
			"max":[
				88.24720764160156,
				-2.2091782093048096,
				-465.5332946777344
			],
			"min":[
				32.839969635009766,
				-2.352205514907837,
				-648.258544921875
			],
			"type":"VEC3"
		},
		{
			"bufferView":36,
			"componentType":5126,
			"count":6,
			"type":"VEC3"
		},
		{
			"bufferView":37,
			"componentType":5126,
			"count":6,
			"type":"VEC2"
		},
		{
			"bufferView":38,
			"componentType":5126,
			"count":6,
			"type":"VEC4"
		},
		{
			"bufferView":39,
			"componentType":5126,
			"count":6,
			"max":[
				32.86333465576172,
				-2.15291690826416,
				-465.52606201171875
			],
			"min":[
				-22.551326751708984,
				-2.3365139961242676,
				-648.258544921875
			],
			"type":"VEC3"
		},
		{
			"bufferView":40,
			"componentType":5126,
			"count":6,
			"type":"VEC3"
		},
		{
			"bufferView":41,
			"componentType":5126,
			"count":6,
			"type":"VEC2"
		}
	],
	"bufferViews":[
		{
			"buffer":0,
			"byteLength":288,
			"byteOffset":0,
			"target":34962
		},
		{
			"buffer":0,
			"byteLength":288,
			"byteOffset":288,
			"target":34962
		},
		{
			"buffer":0,
			"byteLength":192,
			"byteOffset":576,
			"target":34962
		},
		{
			"buffer":0,
			"byteLength":72,
			"byteOffset":768,
			"target":34963
		},
		{
			"buffer":0,
			"byteLength":1200,
			"byteOffset":840,
			"target":34962
		},
		{
			"buffer":0,
			"byteLength":900,
			"byteOffset":2040,
			"target":34962
		},
		{
			"buffer":0,
			"byteLength":900,
			"byteOffset":2940,
			"target":34962
		},
		{
			"buffer":0,
			"byteLength":600,
			"byteOffset":3840,
			"target":34962
		},
		{
			"buffer":0,
			"byteLength":150,
			"byteOffset":4440,
			"target":34963
		},
		{
			"buffer":0,
			"byteLength":384,
			"byteOffset":4592,
			"target":34962
		},
		{
			"buffer":0,
			"byteLength":288,
			"byteOffset":4976,
			"target":34962
		},
		{
			"buffer":0,
			"byteLength":288,
			"byteOffset":5264,
			"target":34962
		},
		{
			"buffer":0,
			"byteLength":192,
			"byteOffset":5552,
			"target":34962
		},
		{
			"buffer":0,
			"byteLength":48,
			"byteOffset":5744,
			"target":34963
		},
		{
			"buffer":0,
			"byteLength":96,
			"byteOffset":5792,
			"target":34962
		},
		{
			"buffer":0,
			"byteLength":72,
			"byteOffset":5888,
			"target":34962
		},
		{
			"buffer":0,
			"byteLength":72,
			"byteOffset":5960,
			"target":34962
		},
		{
			"buffer":0,
			"byteLength":48,
			"byteOffset":6032,
			"target":34962
		},
		{
			"buffer":0,
			"byteLength":12,
			"byteOffset":6080,
			"target":34963
		},
		{
			"buffer":0,
			"byteLength":1344,
			"byteOffset":6092,
			"target":34962
		},
		{
			"buffer":0,
			"byteLength":1008,
			"byteOffset":7436,
			"target":34962
		},
		{
			"buffer":0,
			"byteLength":1008,
			"byteOffset":8444,
			"target":34962
		},
		{
			"buffer":0,
			"byteLength":672,
			"byteOffset":9452,
			"target":34962
		},
		{
			"buffer":0,
			"byteLength":168,
			"byteOffset":10124,
			"target":34963
		},
		{
			"buffer":0,
			"byteLength":144,
			"byteOffset":10292,
			"target":34962
		},
		{
			"buffer":0,
			"byteLength":108,
			"byteOffset":10436,
			"target":34962
		},
		{
			"buffer":0,
			"byteLength":108,
			"byteOffset":10544,
			"target":34962
		},
		{
			"buffer":0,
			"byteLength":72,
			"byteOffset":10652,
			"target":34962
		},
		{
			"buffer":0,
			"byteLength":18,
			"byteOffset":10724,
			"target":34963
		},
		{
			"buffer":0,
			"byteLength":624,
			"byteOffset":10744,
			"target":34962
		},
		{
			"buffer":0,
			"byteLength":468,
			"byteOffset":11368,
			"target":34962
		},
		{
			"buffer":0,
			"byteLength":468,
			"byteOffset":11836,
			"target":34962
		},
		{
			"buffer":0,
			"byteLength":312,
			"byteOffset":12304,
			"target":34962
		},
		{
			"buffer":0,
			"byteLength":78,
			"byteOffset":12616,
			"target":34963
		},
		{
			"buffer":0,
			"byteLength":96,
			"byteOffset":12696,
			"target":34962
		},
		{
			"buffer":0,
			"byteLength":72,
			"byteOffset":12792,
			"target":34962
		},
		{
			"buffer":0,
			"byteLength":72,
			"byteOffset":12864,
			"target":34962
		},
		{
			"buffer":0,
			"byteLength":48,
			"byteOffset":12936,
			"target":34962
		},
		{
			"buffer":0,
			"byteLength":96,
			"byteOffset":12984,
			"target":34962
		},
		{
			"buffer":0,
			"byteLength":72,
			"byteOffset":13080,
			"target":34962
		},
		{
			"buffer":0,
			"byteLength":72,
			"byteOffset":13152,
			"target":34962
		},
		{
			"buffer":0,
			"byteLength":48,
			"byteOffset":13224,
			"target":34962
		}
	],
	"samplers":[
		{
			"magFilter":9729,
			"minFilter":9987
		}
	],
	"buffers":[
		{
			"byteLength":13272,
			"uri":"collision_test.bin"
		}
	]
}
