{
	"asset":{
		"generator":"Khronos glTF Blender I/O v4.0.44",
		"version":"2.0"
	},
	"scene":0,
	"scenes":[
		{
			"name":"Scene",
			"nodes":[
				5
			]
		}
	],
	"nodes":[
		{
			"camera":0,
			"name":"Camera",
			"rotation":[
				-0.28459852933883667,
				0,
				0,
				0.958646833896637
			],
			"translation":[
				0,
				22,
				27.999998092651367
			]
		},
		{
			"extras":{
				"layers":"world"
			},
			"mesh":0,
			"name":"ground",
			"scale":[
				1.2000000476837158,
				1.2000000476837158,
				1.2000000476837158
			]
		},
		{
			"extras":{
				"collisionType":"dynamic",
				"layers":"player"
			},
			"mesh":1,
			"name":"Player",
			"translation":[
				0,
				11,
				0
			]
		},
		{
			"extras":{
				"layers":"world"
			},
			"mesh":2,
			"name":"ramp",
			"scale":[
				0.20000000298023224,
				0.20000000298023224,
				0.20000000298023224
			],
			"translation":[
				0,
				6,
				0
			]
		},
		{
			"children":[
				0,
				1,
				2,
				3
			],
			"name":"Scene"
		},
		{
			"children":[
				4
			],
			"extras":{
				"extraNodes":"5",
				"extraMeshInstances":"5"
			},
			"name":"CollisionTest"
		}
	],
	"cameras":[
		{
			"name":"Camera",
			"perspective":{
				"aspectRatio":1.7777777777777777,
				"yfov":0.39959648408210363,
				"zfar":1000,
				"znear":0.10000000149011612
			},
			"type":"perspective"
		}
	],
	"materials":[
		{
			"doubleSided":true,
			"name":"Material.001",
			"pbrMetallicRoughness":{
				"baseColorFactor":[
					0.002529054880142212,
					0.11236748099327087,
					0.005489921662956476,
					1
				],
				"metallicFactor":0,
				"roughnessFactor":0.5
			}
		},
		{
			"doubleSided":true,
			"name":"Material.002",
			"pbrMetallicRoughness":{
				"baseColorFactor":[
					0.6350954174995422,
					0.45860010385513306,
					0.39619502425193787,
					1
				],
				"metallicFactor":0,
				"roughnessFactor":0.5
			}
		},
		{
			"doubleSided":true,
			"name":"Material.003",
			"pbrMetallicRoughness":{
				"baseColorFactor":[
					0.292026549577713,
					0.0998724177479744,
					0.022105515003204346,
					1
				],
				"metallicFactor":0,
				"roughnessFactor":0.5
			}
		}
	],
	"meshes":[
		{
			"name":"Plane",
			"primitives":[
				{
					"attributes":{
						"POSITION":0,
						"NORMAL":1,
						"TEXCOORD_0":2
					},
					"indices":3,
					"material":0
				}
			]
		},
		{
			"name":"Cube",
			"primitives":[
				{
					"attributes":{
						"POSITION":4,
						"NORMAL":5,
						"TEXCOORD_0":6
					},
					"indices":7,
					"material":1
				}
			]
		},
		{
			"name":"Plane.001",
			"primitives":[
				{
					"attributes":{
						"POSITION":8,
						"NORMAL":9,
						"TEXCOORD_0":10
					},
					"indices":11,
					"material":2
				}
			]
		}
	],
	"accessors":[
		{
			"bufferView":0,
			"componentType":5126,
			"count":16,
			"max":[
				39.166664123535156,
				0,
				12.5
			],
			"min":[
				-40.83332824707031,
				0,
				-40.83332824707031
			],
			"type":"VEC3"
		},
		{
			"bufferView":1,
			"componentType":5126,
			"count":16,
			"type":"VEC3"
		},
		{
			"bufferView":2,
			"componentType":5126,
			"count":16,
			"type":"VEC2"
		},
		{
			"bufferView":3,
			"componentType":5123,
			"count":24,
			"type":"SCALAR"
		},
		{
			"bufferView":4,
			"componentType":5126,
			"count":24,
			"max":[
				0.5,
				5,
				0.5
			],
			"min":[
				-0.5,
				0,
				-0.5
			],
			"type":"VEC3"
		},
		{
			"bufferView":5,
			"componentType":5126,
			"count":24,
			"type":"VEC3"
		},
		{
			"bufferView":6,
			"componentType":5126,
			"count":24,
			"type":"VEC2"
		},
		{
			"bufferView":7,
			"componentType":5123,
			"count":36,
			"type":"SCALAR"
		},
		{
			"bufferView":8,
			"componentType":5126,
			"count":12,
			"max":[
				52.5,
				0,
				12.5
			],
			"min":[
				-57.5,
				-30,
				-12.5
			],
			"type":"VEC3"
		},
		{
			"bufferView":9,
			"componentType":5126,
			"count":12,
			"type":"VEC3"
		},
		{
			"bufferView":10,
			"componentType":5126,
			"count":12,
			"type":"VEC2"
		},
		{
			"bufferView":11,
			"componentType":5123,
			"count":18,
			"type":"SCALAR"
		}
	],
	"bufferViews":[
		{
			"buffer":0,
			"byteLength":192,
			"byteOffset":0,
			"target":34962
		},
		{
			"buffer":0,
			"byteLength":192,
			"byteOffset":192,
			"target":34962
		},
		{
			"buffer":0,
			"byteLength":128,
			"byteOffset":384,
			"target":34962
		},
		{
			"buffer":0,
			"byteLength":48,
			"byteOffset":512,
			"target":34963
		},
		{
			"buffer":0,
			"byteLength":288,
			"byteOffset":560,
			"target":34962
		},
		{
			"buffer":0,
			"byteLength":288,
			"byteOffset":848,
			"target":34962
		},
		{
			"buffer":0,
			"byteLength":192,
			"byteOffset":1136,
			"target":34962
		},
		{
			"buffer":0,
			"byteLength":72,
			"byteOffset":1328,
			"target":34963
		},
		{
			"buffer":0,
			"byteLength":144,
			"byteOffset":1400,
			"target":34962
		},
		{
			"buffer":0,
			"byteLength":144,
			"byteOffset":1544,
			"target":34962
		},
		{
			"buffer":0,
			"byteLength":96,
			"byteOffset":1688,
			"target":34962
		},
		{
			"buffer":0,
			"byteLength":36,
			"byteOffset":1784,
			"target":34963
		}
	],
	"buffers":[
		{
			"byteLength":1820,
			"uri":"collision_test.bin"
		}
	]
}
