{
	"asset":{
		"generator":"Khronos glTF Blender I/O v4.0.44",
		"version":"2.0"
	},
	"scene":0,
	"scenes":[
		{
			"name":"Scene",
			"nodes":[
				5
			]
		}
	],
	"nodes":[
		{
			"mesh":0,
			"name":"aabb",
			"scale":[
				0.29357385635375977,
				0.29357385635375977,
				0.29357385635375977
			],
			"translation":[
				0,
				0,
				11.224309921264648
			]
		},
		{
			"camera":0,
			"name":"camera",
			"rotation":[
				-0.08179214596748352,
				0.6677597165107727,
				0.07658665627241135,
				0.735895037651062
			],
			"translation":[
				56.4459228515625,
				14.188495635986328,
				3.276909112930298
			]
		},
		{
			"mesh":1,
			"name":"capsule",
			"scale":[
				0.29357385635375977,
				0.29357385635375977,
				0.29357385635375977
			],
			"translation":[
				0,
				0,
				-14.476216316223145
			]
		},
		{
			"mesh":2,
			"name":"sphere",
			"scale":[
				0.29357385635375977,
				0.29357385635375977,
				0.29357385635375977
			],
			"translation":[
				0,
				0,
				-1.0890198945999146
			]
		},
		{
			"children":[
				0,
				1,
				2,
				3
			],
			"name":"Scene"
		},
		{
			"children":[
				4
			],
			"name":"debug_primitives"
		}
	],
	"cameras":[
		{
			"name":"Camera.001",
			"perspective":{
				"aspectRatio":1.7777777777777777,
				"yfov":0.39959648408210363,
				"zfar":1000,
				"znear":0.10000000149011612
			},
			"type":"perspective"
		}
	],
	"materials":[
		{
			"doubleSided":true,
			"name":"cube",
			"pbrMetallicRoughness":{
				"baseColorFactor":[
					0.7999992966651917,
					0.056018680334091187,
					0.09542641043663025,
					1
				],
				"metallicFactor":0,
				"roughnessFactor":0.5
			}
		},
		{
			"doubleSided":true,
			"name":"capsule",
			"pbrMetallicRoughness":{
				"baseColorFactor":[
					0.011391421779990196,
					0.043716974556446075,
					0.7999992966651917,
					1
				],
				"metallicFactor":0,
				"roughnessFactor":0.5
			}
		},
		{
			"doubleSided":true,
			"name":"sphere",
			"pbrMetallicRoughness":{
				"baseColorFactor":[
					0.1597355753183365,
					0.7999992966651917,
					0.040948670357465744,
					1
				],
				"metallicFactor":0,
				"roughnessFactor":0.5
			}
		}
	],
	"meshes":[
		{
			"name":"Cube.001",
			"primitives":[
				{
					"attributes":{
						"POSITION":0,
						"NORMAL":1,
						"TEXCOORD_0":2
					},
					"indices":3,
					"material":0
				}
			]
		},
		{
			"name":"Sphere.002",
			"primitives":[
				{
					"attributes":{
						"POSITION":4,
						"NORMAL":5,
						"TEXCOORD_0":6
					},
					"indices":7,
					"material":1
				}
			]
		},
		{
			"name":"Sphere.001",
			"primitives":[
				{
					"attributes":{
						"POSITION":8,
						"NORMAL":9,
						"TEXCOORD_0":10
					},
					"indices":11,
					"material":2
				}
			]
		}
	],
	"accessors":[
		{
			"bufferView":0,
			"componentType":5126,
			"count":24,
			"max":[
				10,
				10,
				10
			],
			"min":[
				-10,
				-10,
				-10
			],
			"type":"VEC3"
		},
		{
			"bufferView":1,
			"componentType":5126,
			"count":24,
			"type":"VEC3"
		},
		{
			"bufferView":2,
			"componentType":5126,
			"count":24,
			"type":"VEC2"
		},
		{
			"bufferView":3,
			"componentType":5123,
			"count":36,
			"type":"SCALAR"
		},
		{
			"bufferView":4,
			"componentType":5126,
			"count":272,
			"max":[
				10,
				20,
				10
			],
			"min":[
				-10,
				-20,
				-10
			],
			"type":"VEC3"
		},
		{
			"bufferView":5,
			"componentType":5126,
			"count":272,
			"type":"VEC3"
		},
		{
			"bufferView":6,
			"componentType":5126,
			"count":272,
			"type":"VEC2"
		},
		{
			"bufferView":7,
			"componentType":5123,
			"count":384,
			"type":"SCALAR"
		},
		{
			"bufferView":8,
			"componentType":5126,
			"count":462,
			"max":[
				9.797464370727539,
				10,
				9.497265815734863
			],
			"min":[
				-9.797462463378906,
				-10,
				-9.898210525512695
			],
			"type":"VEC3"
		},
		{
			"bufferView":9,
			"componentType":5126,
			"count":462,
			"type":"VEC3"
		},
		{
			"bufferView":10,
			"componentType":5126,
			"count":462,
			"type":"VEC2"
		},
		{
			"bufferView":11,
			"componentType":5123,
			"count":660,
			"type":"SCALAR"
		}
	],
	"bufferViews":[
		{
			"buffer":0,
			"byteLength":288,
			"byteOffset":0,
			"target":34962
		},
		{
			"buffer":0,
			"byteLength":288,
			"byteOffset":288,
			"target":34962
		},
		{
			"buffer":0,
			"byteLength":192,
			"byteOffset":576,
			"target":34962
		},
		{
			"buffer":0,
			"byteLength":72,
			"byteOffset":768,
			"target":34963
		},
		{
			"buffer":0,
			"byteLength":3264,
			"byteOffset":840,
			"target":34962
		},
		{
			"buffer":0,
			"byteLength":3264,
			"byteOffset":4104,
			"target":34962
		},
		{
			"buffer":0,
			"byteLength":2176,
			"byteOffset":7368,
			"target":34962
		},
		{
			"buffer":0,
			"byteLength":768,
			"byteOffset":9544,
			"target":34963
		},
		{
			"buffer":0,
			"byteLength":5544,
			"byteOffset":10312,
			"target":34962
		},
		{
			"buffer":0,
			"byteLength":5544,
			"byteOffset":15856,
			"target":34962
		},
		{
			"buffer":0,
			"byteLength":3696,
			"byteOffset":21400,
			"target":34962
		},
		{
			"buffer":0,
			"byteLength":1320,
			"byteOffset":25096,
			"target":34963
		}
	],
	"buffers":[
		{
			"byteLength":26416,
			"uri":"debug_primitives.bin"
		}
	]
}
