{
    "asset" : {
        "generator" : "Khronos glTF Blender I/O v1.4.40",
        "version" : "2.0"
    },
    "scene" : 0,
    "scenes" : [
        {
            "name" : "Scene",
            "nodes" : [
                0,
                10,
                11
            ]
        }
    ],
    "nodes" : [
        {
            "name" : "Light",
            "rotation" : [
                0.16907575726509094,
                0.7558803558349609,
                -0.27217137813568115,
                0.570947527885437
            ],
            "translation" : [
                4.076245307922363,
                2.142730712890625,
                -8.955094337463379
            ]
        },
        {
            "extras" : {
                "layers" : "ground ceiling"
            },
            "mesh" : 0,
            "name" : "Bridge",
            "scale" : [
                26.7879638671875,
                1,
                35.23527526855469
            ],
            "translation" : [
                0.00572954723611474,
                10.537034034729004,
                0
            ]
        },
        {
            "extras" : {
                "layers" : "ground"
            },
            "mesh" : 1,
            "name" : "Ground Plane"
        },
        {
            "mesh" : 2,
            "name" : "Pillar 1",
            "scale" : [
                1,
                5,
                1
            ],
            "translation" : [
                -5.432744979858398,
                5.372394561767578,
                7.137467861175537
            ]
        },
        {
            "mesh" : 3,
            "name" : "Pillar 2",
            "scale" : [
                1,
                5,
                1
            ],
            "translation" : [
                5.572046279907227,
                5.372394561767578,
                7.137467861175537
            ]
        },
        {
            "mesh" : 4,
            "name" : "Pillar 3",
            "scale" : [
                1,
                5,
                1
            ],
            "translation" : [
                5.572046279907227,
                5.372394561767578,
                -6.302676677703857
            ]
        },
        {
            "mesh" : 5,
            "name" : "Pillar 4",
            "scale" : [
                1,
                5,
                1
            ],
            "translation" : [
                -5.432744979858398,
                5.372394561767578,
                -6.302676677703857
            ]
        },
        {
            "extras" : {
                "type" : "start"
            },
            "name" : "Player Start",
            "scale" : [
                10,
                10,
                10
            ],
            "translation" : [
                0,
                2.7222647666931152,
                29.14263153076172
            ]
        },
        {
            "extras" : {
                "layers" : "ground ceiling"
            },
            "mesh" : 6,
            "name" : "Ramp 1",
            "rotation" : [
                0.30070579051971436,
                0,
                0,
                0.9537169337272644
            ],
            "scale" : [
                26.7879638671875,
                0.906781792640686,
                35
            ],
            "translation" : [
                0.00572954723611474,
                5.554392337799072,
                15.735431671142578
            ]
        },
        {
            "extras" : {
                "layers" : "ground ceiling"
            },
            "mesh" : 7,
            "name" : "Ramp 2",
            "rotation" : [
                -0.30070579051971436,
                0,
                0,
                0.9537169337272644
            ],
            "scale" : [
                26.7879638671875,
                0.906781792640686,
                35
            ],
            "translation" : [
                0.00572954723611474,
                5.554392337799072,
                -15.832748413085938
            ]
        },
        {
            "children" : [
                1,
                2,
                3,
                4,
                5,
                6,
                7,
                8,
                9
            ],
            "name" : "Scene"
        },
        {
            "name" : "Colliders"
        }
    ],
    "materials" : [
        {
            "doubleSided" : true,
            "name" : "Sidewalk",
            "pbrMetallicRoughness" : {
                "baseColorTexture" : {
                    "index" : 0,
                    "texCoord" : 0
                },
                "metallicFactor" : 0,
                "roughnessFactor" : 0.5
            }
        },
        {
            "doubleSided" : true,
            "name" : "Grass",
            "pbrMetallicRoughness" : {
                "baseColorTexture" : {
                    "index" : 1,
                    "texCoord" : 0
                },
                "metallicFactor" : 0,
                "roughnessFactor" : 0.4000000059604645
            }
        },
        {
            "doubleSided" : true,
            "name" : "Stone",
            "pbrMetallicRoughness" : {
                "baseColorTexture" : {
                    "index" : 2,
                    "texCoord" : 0
                },
                "metallicFactor" : 0,
                "roughnessFactor" : 0.5
            }
        },
        {
            "doubleSided" : true,
            "name" : "Sidewalk.001",
            "pbrMetallicRoughness" : {
                "baseColorTexture" : {
                    "index" : 3,
                    "texCoord" : 0
                },
                "metallicFactor" : 0,
                "roughnessFactor" : 0.5
            }
        },
        {
            "doubleSided" : true,
            "name" : "Sidewalk.002",
            "pbrMetallicRoughness" : {
                "baseColorTexture" : {
                    "index" : 4,
                    "texCoord" : 0
                },
                "metallicFactor" : 0,
                "roughnessFactor" : 0.5
            }
        }
    ],
    "meshes" : [
        {
            "name" : "Cube.002",
            "primitives" : [
                {
                    "attributes" : {
                        "POSITION" : 0,
                        "NORMAL" : 1,
                        "TEXCOORD_0" : 2
                    },
                    "indices" : 3,
                    "material" : 0
                }
            ]
        },
        {
            "name" : "Cube",
            "primitives" : [
                {
                    "attributes" : {
                        "POSITION" : 4,
                        "NORMAL" : 5,
                        "TEXCOORD_0" : 6
                    },
                    "indices" : 7,
                    "material" : 1
                }
            ]
        },
        {
            "name" : "Cylinder",
            "primitives" : [
                {
                    "attributes" : {
                        "POSITION" : 8,
                        "NORMAL" : 9,
                        "TEXCOORD_0" : 10
                    },
                    "indices" : 11,
                    "material" : 2
                }
            ]
        },
        {
            "name" : "Cylinder.001",
            "primitives" : [
                {
                    "attributes" : {
                        "POSITION" : 12,
                        "NORMAL" : 13,
                        "TEXCOORD_0" : 14
                    },
                    "indices" : 11,
                    "material" : 2
                }
            ]
        },
        {
            "name" : "Cylinder.002",
            "primitives" : [
                {
                    "attributes" : {
                        "POSITION" : 15,
                        "NORMAL" : 16,
                        "TEXCOORD_0" : 17
                    },
                    "indices" : 11,
                    "material" : 2
                }
            ]
        },
        {
            "name" : "Cylinder.003",
            "primitives" : [
                {
                    "attributes" : {
                        "POSITION" : 18,
                        "NORMAL" : 19,
                        "TEXCOORD_0" : 20
                    },
                    "indices" : 11,
                    "material" : 2
                }
            ]
        },
        {
            "name" : "Cube.003",
            "primitives" : [
                {
                    "attributes" : {
                        "POSITION" : 21,
                        "NORMAL" : 22,
                        "TEXCOORD_0" : 23
                    },
                    "indices" : 24,
                    "material" : 3
                }
            ]
        },
        {
            "name" : "Cube.005",
            "primitives" : [
                {
                    "attributes" : {
                        "POSITION" : 25,
                        "NORMAL" : 26,
                        "TEXCOORD_0" : 27
                    },
                    "indices" : 24,
                    "material" : 4
                }
            ]
        }
    ],
    "textures" : [
        {
            "sampler" : 0,
            "source" : 0
        },
        {
            "sampler" : 0,
            "source" : 1
        },
        {
            "sampler" : 0,
            "source" : 2
        },
        {
            "sampler" : 0,
            "source" : 0
        },
        {
            "sampler" : 0,
            "source" : 0
        }
    ],
    "images" : [
        {
            "mimeType" : "image/png",
            "name" : "sidewalk",
            "uri" : "sidewalk.png"
        },
        {
            "mimeType" : "image/png",
            "name" : "grass",
            "uri" : "grass.png"
        },
        {
            "mimeType" : "image/png",
            "name" : "stone",
            "uri" : "stone.png"
        }
    ],
    "accessors" : [
        {
            "bufferView" : 0,
            "componentType" : 5126,
            "count" : 24,
            "max" : [
                0.25,
                0.25,
                0.25
            ],
            "min" : [
                -0.25,
                -0.25,
                -0.25
            ],
            "type" : "VEC3"
        },
        {
            "bufferView" : 1,
            "componentType" : 5126,
            "count" : 24,
            "type" : "VEC3"
        },
        {
            "bufferView" : 2,
            "componentType" : 5126,
            "count" : 24,
            "type" : "VEC2"
        },
        {
            "bufferView" : 3,
            "componentType" : 5123,
            "count" : 36,
            "type" : "SCALAR"
        },
        {
            "bufferView" : 4,
            "componentType" : 5126,
            "count" : 20,
            "max" : [
                33.00687789916992,
                0.825171947479248,
                33.00687789916992
            ],
            "min" : [
                -33.00687789916992,
                -0.825171947479248,
                -33.00687789916992
            ],
            "type" : "VEC3"
        },
        {
            "bufferView" : 5,
            "componentType" : 5126,
            "count" : 20,
            "type" : "VEC3"
        },
        {
            "bufferView" : 6,
            "componentType" : 5126,
            "count" : 20,
            "type" : "VEC2"
        },
        {
            "bufferView" : 7,
            "componentType" : 5123,
            "count" : 30,
            "type" : "SCALAR"
        },
        {
            "bufferView" : 8,
            "componentType" : 5126,
            "count" : 28,
            "max" : [
                0.9749279022216797,
                1,
                0.9009689092636108
            ],
            "min" : [
                -0.9749279022216797,
                -1,
                -1
            ],
            "type" : "VEC3"
        },
        {
            "bufferView" : 9,
            "componentType" : 5126,
            "count" : 28,
            "type" : "VEC3"
        },
        {
            "bufferView" : 10,
            "componentType" : 5126,
            "count" : 28,
            "type" : "VEC2"
        },
        {
            "bufferView" : 11,
            "componentType" : 5123,
            "count" : 42,
            "type" : "SCALAR"
        },
        {
            "bufferView" : 12,
            "componentType" : 5126,
            "count" : 28,
            "max" : [
                0.9749279022216797,
                1,
                0.9009689092636108
            ],
            "min" : [
                -0.9749279022216797,
                -1,
                -1
            ],
            "type" : "VEC3"
        },
        {
            "bufferView" : 13,
            "componentType" : 5126,
            "count" : 28,
            "type" : "VEC3"
        },
        {
            "bufferView" : 14,
            "componentType" : 5126,
            "count" : 28,
            "type" : "VEC2"
        },
        {
            "bufferView" : 15,
            "componentType" : 5126,
            "count" : 28,
            "max" : [
                0.9749279022216797,
                1,
                0.9009689092636108
            ],
            "min" : [
                -0.9749279022216797,
                -1,
                -1
            ],
            "type" : "VEC3"
        },
        {
            "bufferView" : 16,
            "componentType" : 5126,
            "count" : 28,
            "type" : "VEC3"
        },
        {
            "bufferView" : 17,
            "componentType" : 5126,
            "count" : 28,
            "type" : "VEC2"
        },
        {
            "bufferView" : 18,
            "componentType" : 5126,
            "count" : 28,
            "max" : [
                0.9749279022216797,
                1,
                0.9009689092636108
            ],
            "min" : [
                -0.9749279022216797,
                -1,
                -1
            ],
            "type" : "VEC3"
        },
        {
            "bufferView" : 19,
            "componentType" : 5126,
            "count" : 28,
            "type" : "VEC3"
        },
        {
            "bufferView" : 20,
            "componentType" : 5126,
            "count" : 28,
            "type" : "VEC2"
        },
        {
            "bufferView" : 21,
            "componentType" : 5126,
            "count" : 16,
            "max" : [
                0.25,
                0.25,
                0.25
            ],
            "min" : [
                -0.25,
                -0.25,
                -0.25
            ],
            "type" : "VEC3"
        },
        {
            "bufferView" : 22,
            "componentType" : 5126,
            "count" : 16,
            "type" : "VEC3"
        },
        {
            "bufferView" : 23,
            "componentType" : 5126,
            "count" : 16,
            "type" : "VEC2"
        },
        {
            "bufferView" : 24,
            "componentType" : 5123,
            "count" : 24,
            "type" : "SCALAR"
        },
        {
            "bufferView" : 25,
            "componentType" : 5126,
            "count" : 16,
            "max" : [
                0.25,
                0.25,
                0.25
            ],
            "min" : [
                -0.25,
                -0.25,
                -0.25
            ],
            "type" : "VEC3"
        },
        {
            "bufferView" : 26,
            "componentType" : 5126,
            "count" : 16,
            "type" : "VEC3"
        },
        {
            "bufferView" : 27,
            "componentType" : 5126,
            "count" : 16,
            "type" : "VEC2"
        }
    ],
    "bufferViews" : [
        {
            "buffer" : 0,
            "byteLength" : 288,
            "byteOffset" : 0
        },
        {
            "buffer" : 0,
            "byteLength" : 288,
            "byteOffset" : 288
        },
        {
            "buffer" : 0,
            "byteLength" : 192,
            "byteOffset" : 576
        },
        {
            "buffer" : 0,
            "byteLength" : 72,
            "byteOffset" : 768
        },
        {
            "buffer" : 0,
            "byteLength" : 240,
            "byteOffset" : 840
        },
        {
            "buffer" : 0,
            "byteLength" : 240,
            "byteOffset" : 1080
        },
        {
            "buffer" : 0,
            "byteLength" : 160,
            "byteOffset" : 1320
        },
        {
            "buffer" : 0,
            "byteLength" : 60,
            "byteOffset" : 1480
        },
        {
            "buffer" : 0,
            "byteLength" : 336,
            "byteOffset" : 1540
        },
        {
            "buffer" : 0,
            "byteLength" : 336,
            "byteOffset" : 1876
        },
        {
            "buffer" : 0,
            "byteLength" : 224,
            "byteOffset" : 2212
        },
        {
            "buffer" : 0,
            "byteLength" : 84,
            "byteOffset" : 2436
        },
        {
            "buffer" : 0,
            "byteLength" : 336,
            "byteOffset" : 2520
        },
        {
            "buffer" : 0,
            "byteLength" : 336,
            "byteOffset" : 2856
        },
        {
            "buffer" : 0,
            "byteLength" : 224,
            "byteOffset" : 3192
        },
        {
            "buffer" : 0,
            "byteLength" : 336,
            "byteOffset" : 3416
        },
        {
            "buffer" : 0,
            "byteLength" : 336,
            "byteOffset" : 3752
        },
        {
            "buffer" : 0,
            "byteLength" : 224,
            "byteOffset" : 4088
        },
        {
            "buffer" : 0,
            "byteLength" : 336,
            "byteOffset" : 4312
        },
        {
            "buffer" : 0,
            "byteLength" : 336,
            "byteOffset" : 4648
        },
        {
            "buffer" : 0,
            "byteLength" : 224,
            "byteOffset" : 4984
        },
        {
            "buffer" : 0,
            "byteLength" : 192,
            "byteOffset" : 5208
        },
        {
            "buffer" : 0,
            "byteLength" : 192,
            "byteOffset" : 5400
        },
        {
            "buffer" : 0,
            "byteLength" : 128,
            "byteOffset" : 5592
        },
        {
            "buffer" : 0,
            "byteLength" : 48,
            "byteOffset" : 5720
        },
        {
            "buffer" : 0,
            "byteLength" : 192,
            "byteOffset" : 5768
        },
        {
            "buffer" : 0,
            "byteLength" : 192,
            "byteOffset" : 5960
        },
        {
            "buffer" : 0,
            "byteLength" : 128,
            "byteOffset" : 6152
        }
    ],
    "samplers" : [
        {
            "magFilter" : 9729,
            "minFilter" : 9986
        }
    ],
    "buffers" : [
        {
            "byteLength" : 6280,
            "uri" : "ramp_test.bin"
        }
    ]
}
