{
    "asset" : {
        "generator" : "Khronos glTF Blender I/O v1.6.16",
        "version" : "2.0"
    },
    "scene" : 0,
    "scenes" : [
        {
            "name" : "Scene",
            "nodes" : [
                0,
                1,
                2,
                3,
                4,
                5,
                6,
                7,
                8
            ]
        }
    ],
    "nodes" : [
        {
            "name" : "Light",
            "rotation" : [
                0.16907575726509094,
                0.7558803558349609,
                -0.27217137813568115,
                0.570947527885437
            ],
            "translation" : [
                4.076245307922363,
                5.903861999511719,
                -8.955094337463379
            ]
        },
        {
            "extras" : {
                "layers" : "ground"
            },
            "mesh" : 0,
            "name" : "Ground Plane"
        },
        {
            "extras" : {
                "layers" : "ground"
            },
            "mesh" : 1,
            "name" : "Platform top"
        },
        {
            "mesh" : 2,
            "name" : "Pole.001"
        },
        {
            "mesh" : 3,
            "name" : "Pole.003"
        },
        {
            "mesh" : 4,
            "name" : "Pole"
        },
        {
            "mesh" : 5,
            "name" : "Pole.002"
        },
        {
            "extras" : {
                "layers" : "ground"
            },
            "mesh" : 6,
            "name" : "Ramp"
        },
        {
            "extras" : {
                "type" : "start"
            },
            "name" : "Player Start",
            "scale" : [
                10,
                10,
                10
            ],
            "translation" : [
                0,
                2.4546451568603516,
                29.14263153076172
            ]
        }
    ],
    "materials" : [
        {
            "doubleSided" : true,
            "name" : "Grass",
            "pbrMetallicRoughness" : {
                "baseColorTexture" : {
                    "index" : 0
                },
                "metallicFactor" : 0,
                "roughnessFactor" : 0.4000000059604645
            }
        },
        {
            "doubleSided" : true,
            "name" : "Sidewalk",
            "pbrMetallicRoughness" : {
                "baseColorTexture" : {
                    "index" : 1
                },
                "metallicFactor" : 0,
                "roughnessFactor" : 0.5
            }
        },
        {
            "doubleSided" : true,
            "name" : "Stone",
            "pbrMetallicRoughness" : {
                "baseColorTexture" : {
                    "index" : 2
                },
                "metallicFactor" : 0,
                "roughnessFactor" : 0.5
            }
        }
    ],
    "meshes" : [
        {
            "name" : "Cube",
            "primitives" : [
                {
                    "attributes" : {
                        "POSITION" : 0,
                        "NORMAL" : 1,
                        "TEXCOORD_0" : 2
                    },
                    "indices" : 3,
                    "material" : 0
                }
            ]
        },
        {
            "name" : "Cube.001",
            "primitives" : [
                {
                    "attributes" : {
                        "POSITION" : 4,
                        "NORMAL" : 5,
                        "TEXCOORD_0" : 6
                    },
                    "indices" : 7,
                    "material" : 1
                }
            ]
        },
        {
            "name" : "Cylinder.005",
            "primitives" : [
                {
                    "attributes" : {
                        "POSITION" : 8,
                        "NORMAL" : 9,
                        "TEXCOORD_0" : 10
                    },
                    "indices" : 11,
                    "material" : 2
                }
            ]
        },
        {
            "name" : "Cylinder.006",
            "primitives" : [
                {
                    "attributes" : {
                        "POSITION" : 12,
                        "NORMAL" : 13,
                        "TEXCOORD_0" : 14
                    },
                    "indices" : 11,
                    "material" : 2
                }
            ]
        },
        {
            "name" : "Cylinder.007",
            "primitives" : [
                {
                    "attributes" : {
                        "POSITION" : 15,
                        "NORMAL" : 16,
                        "TEXCOORD_0" : 17
                    },
                    "indices" : 11,
                    "material" : 2
                }
            ]
        },
        {
            "name" : "Cylinder.004",
            "primitives" : [
                {
                    "attributes" : {
                        "POSITION" : 18,
                        "NORMAL" : 19,
                        "TEXCOORD_0" : 20
                    },
                    "indices" : 11,
                    "material" : 2
                }
            ]
        },
        {
            "name" : "Cube.004",
            "primitives" : [
                {
                    "attributes" : {
                        "POSITION" : 21,
                        "NORMAL" : 22,
                        "TEXCOORD_0" : 23
                    },
                    "indices" : 24,
                    "material" : 1
                }
            ]
        }
    ],
    "textures" : [
        {
            "sampler" : 0,
            "source" : 0
        },
        {
            "sampler" : 0,
            "source" : 1
        },
        {
            "sampler" : 0,
            "source" : 2
        }
    ],
    "images" : [
        {
            "mimeType" : "image/png",
            "name" : "grass",
            "uri" : "grass.png"
        },
        {
            "mimeType" : "image/png",
            "name" : "sidewalk",
            "uri" : "sidewalk.png"
        },
        {
            "mimeType" : "image/png",
            "name" : "stone",
            "uri" : "stone.png"
        }
    ],
    "accessors" : [
        {
            "bufferView" : 0,
            "componentType" : 5126,
            "count" : 20,
            "max" : [
                33.00687789916992,
                0.825171947479248,
                33.00687789916992
            ],
            "min" : [
                -33.00687789916992,
                -0.825171947479248,
                -33.00687789916992
            ],
            "type" : "VEC3"
        },
        {
            "bufferView" : 1,
            "componentType" : 5126,
            "count" : 20,
            "type" : "VEC3"
        },
        {
            "bufferView" : 2,
            "componentType" : 5126,
            "count" : 20,
            "type" : "VEC2"
        },
        {
            "bufferView" : 3,
            "componentType" : 5123,
            "count" : 30,
            "type" : "SCALAR"
        },
        {
            "bufferView" : 4,
            "componentType" : 5126,
            "count" : 24,
            "max" : [
                5.951327323913574,
                10.122673034667969,
                -6.156679153442383
            ],
            "min" : [
                -4.575776100158691,
                9.622673034667969,
                -21.023597717285156
            ],
            "type" : "VEC3"
        },
        {
            "bufferView" : 5,
            "componentType" : 5126,
            "count" : 24,
            "type" : "VEC3"
        },
        {
            "bufferView" : 6,
            "componentType" : 5126,
            "count" : 24,
            "type" : "VEC2"
        },
        {
            "bufferView" : 7,
            "componentType" : 5123,
            "count" : 36,
            "type" : "SCALAR"
        },
        {
            "bufferView" : 8,
            "componentType" : 5126,
            "count" : 24,
            "max" : [
                5.7585883140563965,
                9.89450454711914,
                -18.991064071655273
            ],
            "min" : [
                4.0265374183654785,
                0.31606435775756836,
                -20.991064071655273
            ],
            "type" : "VEC3"
        },
        {
            "bufferView" : 9,
            "componentType" : 5126,
            "count" : 24,
            "type" : "VEC3"
        },
        {
            "bufferView" : 10,
            "componentType" : 5126,
            "count" : 24,
            "type" : "VEC2"
        },
        {
            "bufferView" : 11,
            "componentType" : 5123,
            "count" : 36,
            "type" : "SCALAR"
        },
        {
            "bufferView" : 12,
            "componentType" : 5126,
            "count" : 24,
            "max" : [
                -2.7029459476470947,
                9.89450454711914,
                -6.440570831298828
            ],
            "min" : [
                -4.434996604919434,
                0.31606435775756836,
                -8.440570831298828
            ],
            "type" : "VEC3"
        },
        {
            "bufferView" : 13,
            "componentType" : 5126,
            "count" : 24,
            "type" : "VEC3"
        },
        {
            "bufferView" : 14,
            "componentType" : 5126,
            "count" : 24,
            "type" : "VEC2"
        },
        {
            "bufferView" : 15,
            "componentType" : 5126,
            "count" : 24,
            "max" : [
                5.7585883140563965,
                9.89450454711914,
                -6.440570831298828
            ],
            "min" : [
                4.0265374183654785,
                0.31606435775756836,
                -8.440570831298828
            ],
            "type" : "VEC3"
        },
        {
            "bufferView" : 16,
            "componentType" : 5126,
            "count" : 24,
            "type" : "VEC3"
        },
        {
            "bufferView" : 17,
            "componentType" : 5126,
            "count" : 24,
            "type" : "VEC2"
        },
        {
            "bufferView" : 18,
            "componentType" : 5126,
            "count" : 24,
            "max" : [
                -2.7029459476470947,
                9.89450454711914,
                -18.991064071655273
            ],
            "min" : [
                -4.434996604919434,
                0.31606435775756836,
                -20.991064071655273
            ],
            "type" : "VEC3"
        },
        {
            "bufferView" : 19,
            "componentType" : 5126,
            "count" : 24,
            "type" : "VEC3"
        },
        {
            "bufferView" : 20,
            "componentType" : 5126,
            "count" : 24,
            "type" : "VEC2"
        },
        {
            "bufferView" : 21,
            "componentType" : 5126,
            "count" : 20,
            "max" : [
                5.959761142730713,
                10.130443572998047,
                11.985330581665039
            ],
            "min" : [
                -4.567342281341553,
                0.06898927688598633,
                -6.465575218200684
            ],
            "type" : "VEC3"
        },
        {
            "bufferView" : 22,
            "componentType" : 5126,
            "count" : 20,
            "type" : "VEC3"
        },
        {
            "bufferView" : 23,
            "componentType" : 5126,
            "count" : 20,
            "type" : "VEC2"
        },
        {
            "bufferView" : 24,
            "componentType" : 5123,
            "count" : 30,
            "type" : "SCALAR"
        }
    ],
    "bufferViews" : [
        {
            "buffer" : 0,
            "byteLength" : 240,
            "byteOffset" : 0
        },
        {
            "buffer" : 0,
            "byteLength" : 240,
            "byteOffset" : 240
        },
        {
            "buffer" : 0,
            "byteLength" : 160,
            "byteOffset" : 480
        },
        {
            "buffer" : 0,
            "byteLength" : 60,
            "byteOffset" : 640
        },
        {
            "buffer" : 0,
            "byteLength" : 288,
            "byteOffset" : 700
        },
        {
            "buffer" : 0,
            "byteLength" : 288,
            "byteOffset" : 988
        },
        {
            "buffer" : 0,
            "byteLength" : 192,
            "byteOffset" : 1276
        },
        {
            "buffer" : 0,
            "byteLength" : 72,
            "byteOffset" : 1468
        },
        {
            "buffer" : 0,
            "byteLength" : 288,
            "byteOffset" : 1540
        },
        {
            "buffer" : 0,
            "byteLength" : 288,
            "byteOffset" : 1828
        },
        {
            "buffer" : 0,
            "byteLength" : 192,
            "byteOffset" : 2116
        },
        {
            "buffer" : 0,
            "byteLength" : 72,
            "byteOffset" : 2308
        },
        {
            "buffer" : 0,
            "byteLength" : 288,
            "byteOffset" : 2380
        },
        {
            "buffer" : 0,
            "byteLength" : 288,
            "byteOffset" : 2668
        },
        {
            "buffer" : 0,
            "byteLength" : 192,
            "byteOffset" : 2956
        },
        {
            "buffer" : 0,
            "byteLength" : 288,
            "byteOffset" : 3148
        },
        {
            "buffer" : 0,
            "byteLength" : 288,
            "byteOffset" : 3436
        },
        {
            "buffer" : 0,
            "byteLength" : 192,
            "byteOffset" : 3724
        },
        {
            "buffer" : 0,
            "byteLength" : 288,
            "byteOffset" : 3916
        },
        {
            "buffer" : 0,
            "byteLength" : 288,
            "byteOffset" : 4204
        },
        {
            "buffer" : 0,
            "byteLength" : 192,
            "byteOffset" : 4492
        },
        {
            "buffer" : 0,
            "byteLength" : 240,
            "byteOffset" : 4684
        },
        {
            "buffer" : 0,
            "byteLength" : 240,
            "byteOffset" : 4924
        },
        {
            "buffer" : 0,
            "byteLength" : 160,
            "byteOffset" : 5164
        },
        {
            "buffer" : 0,
            "byteLength" : 60,
            "byteOffset" : 5324
        }
    ],
    "samplers" : [
        {
            "magFilter" : 9729,
            "minFilter" : 9987
        }
    ],
    "buffers" : [
        {
            "byteLength" : 5384,
            "uri" : "ramp_test.bin"
        }
    ]
}
